<svg width="591" height="606" viewBox="0 0 591 606" fill="none" xmlns="http://www.w3.org/2000/svg">
    <rect width="591" height="606" fill="#1E1E1E" />
    <g id="Article">
        <g id="chrome">
            <g id="Background">
                <path id="rounded" opacity="0.25" fill-rule="evenodd" clip-rule="evenodd"
                      d="M21.0705 0L569.815 0C576.988 0 579.589 0.992688 582.211 2.85675C584.833 4.72081 586.891 7.45624 588.294 10.9417C589.696 14.4272 590.443 17.8845 590.443 27.4185V578.582C590.443 588.116 589.696 591.573 588.294 595.058C586.891 598.544 584.833 601.279 582.211 603.143C579.589 605.007 576.988 606 569.815 606H21.0705C13.8978 606 11.2968 605.007 8.67461 603.143C6.05239 601.279 3.99445 598.544 2.59208 595.058C1.1897 591.573 0.442871 588.116 0.442871 578.582L0.442871 27.4185C0.442871 17.8845 1.1897 14.4272 2.59208 10.9417C3.99445 7.45624 6.05239 4.72081 8.67461 2.85675C11.2968 0.992688 13.8978 0 21.0705 0Z"
                      fill="white" />
            </g>
            <g id="Toolbar">
                <path id="Vector" opacity="0.197" fill-rule="evenodd" clip-rule="evenodd"
                      d="M0 9.858C0 4.414 4.41 0 9.81 0H580.19C585.608 0 590 4.378 590 9.858V52.411H0V9.858Z"
                      fill="white" />
                <path id="Vector_2" opacity="0.499" fill-rule="evenodd" clip-rule="evenodd"
                      d="M24.583 19.654C29.109 19.654 32.778 23.32 32.778 27.844C32.778 32.366 29.109 36.032 24.583 36.032C20.058 36.032 16.389 32.366 16.389 27.843C16.389 23.32 20.058 19.654 24.583 19.654ZM50.806 19.654C51.8818 19.6537 52.9471 19.8654 53.9411 20.2768C54.9351 20.6883 55.8383 21.2914 56.5992 22.052C57.3601 22.8125 57.9637 23.7154 58.3757 24.7092C58.7876 25.703 58.9997 26.7682 59 27.844C59 32.366 55.331 36.032 50.806 36.032C46.28 36.032 42.611 32.366 42.611 27.843C42.611 23.32 46.28 19.654 50.806 19.654ZM77.028 19.654C78.1038 19.6536 79.1692 19.8651 80.1633 20.2765C81.1573 20.6879 82.0606 21.2911 82.8215 22.0517C83.5824 22.8122 84.186 23.7152 84.5979 24.709C85.0098 25.7029 85.2219 26.7682 85.222 27.844C85.222 32.366 81.554 36.032 77.028 36.032C72.502 36.032 68.833 32.366 68.833 27.843C68.833 23.32 72.502 19.654 77.028 19.654Z"
                      fill="white" />
            </g>
        </g>
        <g id="Introduction">
            <path id="Vector_3" opacity="0.197" fill-rule="evenodd" clip-rule="evenodd"
                  d="M88.5 494.627H501.5V504.454H88.5V494.627Z" fill="white" />
            <path id="Vector_4" opacity="0.197" fill-rule="evenodd" clip-rule="evenodd"
                  d="M88.5 471.697H501.5V481.524H88.5V471.697Z" fill="white" />
            <path id="Vector_5" opacity="0.197" fill-rule="evenodd" clip-rule="evenodd"
                  d="M88.5 448.768H501.5V458.595H88.5V448.768Z" fill="white" />
            <path id="Vector_6" opacity="0.197" fill-rule="evenodd" clip-rule="evenodd"
                  d="M88.5 517.557H501.5V527.384H88.5V517.557Z" fill="white" />
            <path id="Vector_7" opacity="0.197" fill-rule="evenodd" clip-rule="evenodd"
                  d="M88.5 540.487H501.5V550.314H88.5V540.487Z" fill="white" />
            <path id="Vector_8" opacity="0.197" fill-rule="evenodd" clip-rule="evenodd"
                  d="M170.444 563.416H419.556V573.243H170.444V563.416Z" fill="white" />
        </g>
        <g id="Header">
            <path id="Header_2" opacity="0.5" fill-rule="evenodd" clip-rule="evenodd"
                  d="M214 405.611H378V432.611H214V405.611Z" fill="white" />
        </g>
        <g id="Breadcrumb">
            <path id="breadcrumb" opacity="0.25" fill-rule="evenodd" clip-rule="evenodd"
                  d="M275 386.389H314.333V396.222H275V386.389Z" fill="white" />
        </g>
        <g id="Full Size">
            <path id="bg" opacity="0.196641"
                  d="M550.889 84.6111H39.5556C35.935 84.6111 33 87.5461 33 91.1666V346.833C33 350.454 35.935 353.389 39.5556 353.389H550.889C554.509 353.389 557.444 350.454 557.444 346.833V91.1666C557.444 87.5461 554.509 84.6111 550.889 84.6111Z"
                  fill="white" />
            <g id="Mask group">
                <mask id="mask0_38_1015" style="mask-type:luminance" maskUnits="userSpaceOnUse" x="33" y="84"
                      width="525" height="270">
                    <g id="Group">
                        <path id="Vector_9"
                              d="M550.889 84.6111H39.5556C35.935 84.6111 33 87.5461 33 91.1666V346.833C33 350.454 35.935 353.389 39.5556 353.389H550.889C554.509 353.389 557.444 350.454 557.444 346.833V91.1666C557.444 87.5461 554.509 84.6111 550.889 84.6111Z"
                              fill="white" />
                    </g>
                </mask>
                <g mask="url(#mask0_38_1015)">
                    <path id="right_mountain" opacity="0.196641" fill-rule="evenodd" clip-rule="evenodd"
                          d="M437.952 209.167C515.791 209.167 553.712 270.745 629.556 353.389C567.683 353.389 302.805 353.389 226.389 353.389C292.253 285.329 360.112 209.167 437.952 209.167Z"
                          fill="white" />
                </g>
            </g>
            <g id="Mask group_2">
                <mask id="mask1_38_1015" style="mask-type:luminance" maskUnits="userSpaceOnUse" x="33" y="84"
                      width="525" height="270">
                    <g id="Group_2">
                        <path id="Vector_10"
                              d="M550.889 84.6111H39.5556C35.935 84.6111 33 87.5461 33 91.1666V346.833C33 350.454 35.935 353.389 39.5556 353.389H550.889C554.509 353.389 557.444 350.454 557.444 346.833V91.1666C557.444 87.5461 554.509 84.6111 550.889 84.6111Z"
                              fill="white" />
                    </g>
                </mask>
                <g mask="url(#mask1_38_1015)">
                    <path id="left_mountain" opacity="0.198471" fill-rule="evenodd" clip-rule="evenodd"
                          d="M178.861 186.222C262.06 186.222 315.89 265.932 390.278 353.389C292.676 353.389 56.3158 353.389 -32.5555 353.389C39.2979 265.932 95.6624 186.222 178.861 186.222Z"
                          fill="white" />
                </g>
            </g>
            <g id="Mask group_3">
                <mask id="mask2_38_1015" style="mask-type:luminance" maskUnits="userSpaceOnUse" x="33" y="84"
                      width="525" height="270">
                    <g id="Group_3">
                        <path id="Vector_11"
                              d="M550.889 84.6111H39.5556C35.935 84.6111 33 87.5461 33 91.1666V346.833C33 350.454 35.935 353.389 39.5556 353.389H550.889C554.509 353.389 557.444 350.454 557.444 346.833V91.1666C557.444 87.5461 554.509 84.6111 550.889 84.6111Z"
                              fill="white" />
                    </g>
                </mask>
                <g mask="url(#mask2_38_1015)">
                    <path id="sun" opacity="0.498717"
                          d="M318.167 186.222C334.459 186.222 347.667 173.015 347.667 156.722C347.667 140.43 334.459 127.222 318.167 127.222C301.874 127.222 288.667 140.43 288.667 156.722C288.667 173.015 301.874 186.222 318.167 186.222Z"
                          fill="white" />
                </g>
            </g>
        </g>
    </g>
</svg>