<!-- @format -->

<svg
	height="100%"
	stroke-miterlimit="10"
	style="
		fill-rule: nonzero;
		clip-rule: evenodd;
		stroke-linecap: round;
		stroke-linejoin: round;
	"
	version="1.1"
	viewBox="0 0 600 600"
	width="100%"
	xml:space="preserve"
	xmlns="http://www.w3.org/2000/svg"
	xmlns:xlink="http://www.w3.org/1999/xlink"
>
	<defs />
	<g id="Layer-1">
		<path
			d="M0 0C344 0 344 0 688 0C688 283 688 283 688 566C344 566 344 566 0 566C0 283 0 283 0 0Z"
			fill="#2a2a2a"
			fill-rule="nonzero"
			opacity="0"
			stroke="none"
		/>
		<path
			d="M157 299C168.781 300.144 180.422 302.539 192 305C192 306 192 306 192 307C218.781 310.688 243.673 317.296 270 324C269.345 328.559 266.49 331.01 262.307 333.115C242.631 343.015 222.764 352.532 202.838 361.917C199.066 363.693 191.796 365.975 189.262 360.683C179.765 340.854 163.16 320.996 157 299Z"
			fill="#ffffff"
			fill-rule="nonzero"
			opacity="1"
			stroke="none"
		/>
		<path
			d="M0 217C0 231 0 233.242 0 245C49.5 257 49.5 257 99 269C71.437 296.253 33.927 311.254 0 330C0 353.056 0 390.384 0 415C20.274 449.526 20.2885 449.537 40.5625 484.062C20.2885 496.537 20.274 496.526 0 509C0 520.726 0 522.5 0 536C5.22945 533.775 10.8382 532.276 15.6875 529.312C17.0823 528.46 16.6469 525.917 18 525C30.2559 516.693 42.9766 509.044 56 502C61.7663 498.881 66.817 498.113 72.0938 493.688C77.533 489.126 69.9996 479.373 66.6875 473.094C49.4779 440.468 30.5148 416.433 14 382C11.0205 375.788 10.8752 368.402 7.59375 362.344C5.90475 359.226 1 357.546 1 354C5.55866 352.545 10.563 352.051 14.6875 349.625C16.5675 348.519 16.1576 345.167 18 344C23.7267 340.372 30.6901 339.083 36.5938 335.75C51.395 327.394 65.0532 317.092 80 309C83.641 307.029 88.3913 307.78 92 305.75C94.0383 304.603 94.003 301.217 96 300C99.6004 297.806 104 297.333 108 296C125.347 333.486 144.006 370.398 160.031 408.469C160.824 410.351 159.357 412.905 157.719 414.125C141.973 425.852 119.139 440.453 101 450C81.5 409 81.5 409 62 368C73.5 363 73.5 363 85 358C91.2606 375.169 97.7362 392.398 106.438 408.469C112.262 404.815 118.987 402.303 123.906 397.5C126.79 394.684 127.264 390.167 128.938 386.5C127.628 385.667 125.729 385.37 125 384C116.142 367.343 109.609 349.504 100.469 333C94.4285 322.094 87.0706 333.225 82 336C65.8869 344.819 49.0991 352.375 32.6562 360.562C38.6111 374.91 46.5935 388.345 54 402C59.2614 411.7 62.8069 422.263 68 432C68.3137 432.588 69.3333 432 70 432C72.2913 439.082 73.3459 446.696 76.875 453.25C78.2287 455.764 82.4702 455.589 84 458C86.6817 462.226 89.2696 478.641 98.4062 477.375C107.367 476.134 113.566 466.342 120 463C125.695 460.042 132.538 459.608 138.062 456.344C140.204 455.078 139.957 451.419 142 450C145.529 447.549 150.334 447.522 154 445.281C156.471 443.771 157.529 440.51 160 439C177.568 428.264 196.244 419.404 213.844 408.719C215.068 407.975 214.707 405.617 216 405C219.511 403.323 224.044 404.312 227.344 402.25C229.781 400.727 229.724 396.754 232 395C235.57 392.249 240.721 392.092 244.219 389.25C246.33 387.534 245.854 383.673 248 382C250.834 379.791 255.331 380.595 258.156 378.375C260.339 376.66 259.868 372.777 262 371C265.787 367.843 271.264 367.246 275.156 364.219C277.445 362.438 277.733 358.809 280 357C303.151 338.521 328.448 322.519 349.812 302C317.656 292.644 285.202 283.388 252 279C252 278 252 278 252 277C200.276 265.947 149.799 249.69 98.4062 237.188C65.8721 229.273 32.7996 223.73 0 217ZM126 276C173 288 219.851 300.599 267 312C282.382 315.719 298.499 313.192 309 326C292.477 336.123 281.542 340.575 265 349C242.042 360.693 219.865 373.882 197.062 385.875C180.948 394.351 180.13 380.776 175 370C173.87 367.626 169.571 367.897 168.562 365.469C166.22 359.828 165.395 353.619 163 348C161.949 345.534 158.501 344.745 157.25 342.375C150.57 329.718 144.16 316.918 138 304C133.664 294.908 126.453 288.96 126 276Z"
			fill="#ffffff"
			fill-rule="nonzero"
			opacity="1"
			stroke="none"
		/>
		<path
			d="M291 0C323.333 0 356.843-8.64031 388 0C400.74 3.53282 402.667 22 410 33C435 25.5 435 25.5 460 18C468.148 30.3085 473.566 44.2756 479 58C498.232 49.4215 516.569 38.4594 536.695 32.2644C547.914 28.8114 551.026 66.6436 563.02 69.5144C579.403 73.4359 593.835 55.1789 610.322 51.7205C615.916 50.5471 634.136 70.4 623.894 78.409C619.019 82.2205 612.82 84.1197 608 88C602.091 92.7571 597.742 99.2373 591.944 104.129C587.028 108.278 580.854 110.78 576 115C574.573 116.24 574.978 118.872 573.555 120.117C572.084 121.405 569.57 120.835 568 122C561.377 126.912 555.503 132.76 549.255 138.14C538.627 112.07 538.627 112.07 528 86C510.128 94.0675 493.163 104.559 474.383 110.202C466.309 112.629 450.169 72.0678 443.041 73.4384C428.719 76.1927 416.285 85.3066 402.245 89.2536C398.075 90.4259 393.362 89.9726 389.268 88.5547C383.735 86.638 385.368 77.008 384 74C383.436 72.7598 381.038 73.3858 380.316 72.2304C376.855 66.6937 374.84 60.2804 371 55C347.735 64.1596 347.735 64.1596 324.47 73.3191C312.494 49.2703 297.199 26.1409 291 0Z"
			fill="#ffffff"
			fill-rule="nonzero"
			opacity="1"
			stroke="none"
		/>
		<path
			d="M430.607 301.719C428.353 314.344 415.335 317.742 406 325C404.228 326.378 404.796 329.636 403.059 331.057C400.315 333.302 395 334.454 395 338C399.957 338.403 397.305 337.421 401 344C404.562 342.982 407.341 340.109 410.16 337.704C418.041 330.982 426.597 325.09 434.972 318.994C441.882 313.963 444.508 317.931 449 326C449.535 326.961 449.266 328.427 448.559 329.271C438.446 341.346 416.727 346.289 416 363C434.085 362.342 436.914 345.76 452.258 339.864C460.491 336.7 468.257 345.863 461.298 352.103C453.06 359.49 443.467 365.33 435.577 373.088C431.161 377.43 432.467 381.1 433 386C440.934 386 458.366 363.072 468.374 359.186C474.054 356.981 483.609 362.235 479.437 369.262C475.78 375.421 468.793 376.353 464 380C462.313 381.284 462.79 384.338 461.156 385.688C455.413 390.43 447.769 393.577 444 400C452.321 399.54 460.935 397.419 468 393C469.851 391.842 469.447 388.451 471.343 387.367C474.502 385.562 478.775 386.685 482 385C484.064 383.922 484.2 379.653 486.528 379.681C491.983 379.748 508.94 393.671 503.205 398.877C487.104 413.495 463.595 416.988 443.073 424.182C441.082 424.88 438.391 425.788 436.75 424.462C430.66 419.54 424.999 408.144 420 402C409.545 389.149 398.223 374.408 387 362C385.642 360.498 382.805 360.917 381.54 359.336C379.924 357.315 379.847 354.445 379 352C364.817 354.438 358.313 364.955 347.293 373.98C330.809 387.48 313.749 400.273 296.558 412.86C295.869 413.365 294.625 412.418 294 413C289.252 417.42 287.21 421.903 280 424C280 425 280 425 280 426C277.848 426.538 274.039 426.664 273.535 429.909C272.675 435.456 272.638 441.133 272.938 446.737C273.461 456.531 274.979 466.246 276 476C283.71 472.033 291.127 467.435 299.13 464.1C303.203 462.403 308.039 462.944 312 461C313.648 460.191 313.297 457.163 314.939 456.342C317.67 454.976 320.98 455.447 324 455C324 454 324 454 324 453C332.349 453 348.615 440.192 356.577 435.977C366.05 430.962 376.587 428.128 386 423C387.074 422.415 387.265 420.62 386.917 419.448C385.522 414.75 376.72 409.538 372 412C354.538 421.109 338.176 432.238 320.675 441.271C317.411 442.956 313.088 442.011 310 444C308.02 445.275 308.76 450.961 306.544 450.163C298.377 447.22 294.918 438.943 294 431C295 431 295 431 296 431C296.094 430.05 295.472 428.655 296.281 428.149C306.474 421.779 317.783 417.331 328 411C329.253 410.224 328.923 407.931 330.173 407.15C334.96 404.157 339.222 404.143 344 401C351.122 396.315 356.972 389.886 364 385.061C364.996 384.378 377.146 376.417 381.57 379.76C383.351 381.105 382.497 384.349 384 386C385.595 387.751 388.859 387.431 390.28 389.325C393.061 393.034 393.286 398.243 396 402C402.515 411.018 411.242 418.294 417.735 427.328C423.39 435.195 413.986 438.687 408.145 441.3C399.374 445.224 389.786 447.11 381 451C345.711 466.622 311.344 484.282 276.007 499.796C270.286 502.307 264.002 503.265 258 505C255.662 479.434 252.408 453.936 250.987 428.303C250.492 419.363 263.69 417.808 267.713 414.464C272.573 410.424 276.028 404.068 282 402C282 401 282 401 282 400C288.504 398.374 293.603 390.187 299.008 386.134C300.373 385.11 302.747 386.158 304 385C306.551 382.642 306.137 377.83 308.994 375.855C338.899 355.185 370.219 334.644 398 311C399.542 309.688 399.083 306.805 400.664 305.54C402.685 303.924 405.931 304.554 408 303C409.949 301.536 410.044 298.252 412.104 296.949C415.289 294.934 419.148 293.97 422.896 293.578C426.071 293.245 427.336 300.16 430.607 301.719Z"
			fill="#ffffff"
			fill-rule="nonzero"
			opacity="1"
			stroke="none"
		/>
		<path
			d="M336 90C390 104 390 104 444 118C444 119 444 119 444 120C468 125.5 468 125.5 492 131C492 132 492 132 492 133C498.207 134.034 518.597 135.077 520.631 141.253C527.695 162.704 488.953 190.037 476.859 200.891C465.243 211.316 453.381 221.497 441 231C439.346 232.27 437.105 233.394 435.063 232.971C429.063 231.727 429.51 221.938 428 216C454.174 206.185 475.963 187.272 500 173C497 163 497 163 494 153C469.88 163.05 447.774 177.555 426 192C425.24 192.504 426.145 199.353 421.836 196.664C421.237 196.29 406.223 183.568 413.69 179.294C416.821 177.502 420.959 177.941 424 176C426.855 174.179 427.152 169.197 430.344 168.066C434.063 166.748 438.603 168.007 442 166C444.706 164.401 444.466 159.706 447.179 158.118C456.035 152.932 472.325 153.125 474 143C467.509 141.714 461.025 137.894 454.526 139.142C432.1 143.449 402.887 175.152 395 139C405.5 135.5 405.5 135.5 416 132C412.981 126.408 404.992 125.309 398.852 123.671C389.382 121.146 379.617 119.89 370 118C375.5 133.5 375.5 133.5 381 149C381.667 149 382.728 148.391 383 149C396.891 180.09 411.147 211.077 423 243C425.45 249.599 411.581 254.825 410.044 255.722C387.183 207.572 363.204 159.937 341.46 111.271C338.474 104.588 337.82 97.0905 336 90Z"
			fill="#ffffff"
			fill-rule="nonzero"
			opacity="1"
			stroke="none"
		/>
		<path
			d="M480 0C584 0 584 0 688 0C688 10.5 688 10.5 688 21C661.5 16 661.5 16 635 11C642 23 650.682 34.1656 656 47C658.165 52.225 645.189 57.9937 644.115 58.6387C634.76 48.1312 626.891 36.2657 620 24C598.185 35.241 598.185 35.241 576.369 46.4821C567.927 33.6329 562.018 18.6997 551.042 7.9345C548.087 5.03726 542.635 8.1875 538.737 9.57505C526.14 14.0591 514.976 22.6849 501.889 25.4304C493.776 27.1326 485.431 8.81057 480 0Z"
			fill="#ffffff"
			fill-rule="nonzero"
			opacity="1"
			stroke="none"
		/>
		<path
			d="M210 443C212.5 443.5 212.5 443.5 215 444C218.416 476.263 221.463 508.593 223 541C192.529 538.68 162.767 519.97 136 507C142.409 493.56 152.793 490.213 164 482C165.598 480.829 168.097 476.993 172 476C172 475 172 475 172 474C173 474 173 474 174 474C175.17 468.455 186.844 461.171 192 460C192 459 192 459 192 458C194.832 458 208.439 446.015 210 443Z"
			fill="#ffffff"
			fill-rule="nonzero"
			opacity="1"
			stroke="none"
		/>
		<path
			d="M499 556C504.49 557.463 503.184 559.796 504 566C490.052 566.84 469.63 573.098 468.747 552.988C468.636 550.464 468.978 547.795 470.095 545.528C484.875 515.537 500.185 485.794 516.297 456.497C519.732 450.251 520.009 456.934 533 474C536.984 479.233 552.538 489.69 549.2 496.601C537.844 520.111 508.931 530.868 499 556Z"
			fill="#ffffff"
			fill-rule="nonzero"
			opacity="1"
			stroke="none"
		/>
		<path
			d="M535 420C551.246 427.906 558.494 444.796 569 458C575.037 465.587 583.21 471.336 588.821 479.779C592.159 484.802 603.045 493.401 599.677 499.82C590.442 517.423 571.171 527.536 557.088 541.566C552.487 546.15 548.009 550.89 544 556C542.006 558.542 544.603 564.432 545 566C532.041 566.746 525.626 569.264 522 555C521.677 553.73 521.399 552.044 522.285 551.079C538.583 533.34 559.025 519.143 572.742 499.341C576.377 494.093 565.451 488.858 561.674 483.711C556.678 476.902 550.989 476.291 549 466C548 466 548 466 547 466C547 465 547 465 547 464C538.396 461.214 534.29 442 528 442C526.703 434.973 526.566 438.304 528 432C529 432 529 432 530 432C531.981 424.567 530.521 428.647 535 420Z"
			fill="#ffffff"
			fill-rule="nonzero"
			opacity="1"
			stroke="none"
		/>
		<path
			d="M666 290C673.299 293.138 675.681 302.136 677.863 309.365C681.992 323.044 671.395 334.448 662.504 343.424C658.449 347.517 651.023 344.551 645.262 344.641C629.176 344.892 613.087 344.88 597 345C611.304 318.558 628.546 296.201 645.169 271.513C645.835 270.524 651.28 262.671 654.011 265.006C660.582 270.621 662.286 280.194 666 290Z"
			fill="#ffffff"
			fill-rule="nonzero"
			opacity="1"
			stroke="none"
		/>
		<path
			d="M576 416C607.333 416.333 638.693 415.678 670 417C674.662 417.197 669.911 426.988 667.07 430.689C663.03 435.951 657.007 439.448 652.875 444.638C644.768 454.818 638.652 466.487 630.492 476.624C628.511 479.085 625.323 480.259 622.738 482.076C605.483 461.337 588.65 439.829 576 416Z"
			fill="#ffffff"
			fill-rule="nonzero"
			opacity="1"
			stroke="none"
		/>
		<path
			d="M687 358C687.5 378 687.5 378 688 398C624.5 397.5 624.5 397.5 561 397C565.6 388.734 565.762 374.998 574.799 372.201C610.812 361.054 649.6 362.734 687 358Z"
			fill="#ffffff"
			fill-rule="nonzero"
			opacity="1"
			stroke="none"
		/>
		<path
			d="M115 522C144.707 528.285 173.223 539.311 202 549C194.494 559.412 188.559 561.967 176 564C176 565 176 565 176 566C141.5 566 141.5 566 107 566C111 544 111 544 115 522Z"
			fill="#ffffff"
			fill-rule="nonzero"
			opacity="1"
			stroke="none"
		/>
		<path
			d="M254.027 188.354C242.523 178.164 236.961 162.639 230.579 148.659C226.198 139.063 249.462 133.553 253.109 134.166C272.632 137.447 291.362 144.384 310.488 149.494C295.043 167.074 273.637 174.898 254.027 188.354Z"
			fill="#ffffff"
			fill-rule="nonzero"
			opacity="1"
			stroke="none"
		/>
		<path
			d="M107 102C123.117 104.072 179.598 107.73 183 130C184 130 184 130 185 130C181.702 143.646 160.607 146.951 149 148C149 153.223 135.981 156.745 133.093 151.326C128.301 142.332 122.975 133.114 118 124C113.917 116.52 107.942 112.411 107 102Z"
			fill="#ffffff"
			fill-rule="nonzero"
			opacity="1"
			stroke="none"
		/>
		<path
			d="M657 566C612.5 566 612.5 566 568 566C572.663 556.646 586.707 549.527 595 543C602.839 536.83 610.134 529.994 617.897 523.728C618.751 523.039 619.71 522.304 620.799 522.174C625.417 521.624 630.029 529.614 631.193 531.057C640.508 542.606 651.005 553.049 657 566Z"
			fill="#ffffff"
			fill-rule="nonzero"
			opacity="1"
			stroke="none"
		/>
		<path
			d="M0 77C22.1813 80.8578 44.6614 84.7896 65.6122 93.0331C58.2349 99.1752 51.3248 105.926 43.4805 111.459C34.4552 117.826 20.2075 129.511 12.0792 122.034C7.83951 118.133 2.46138 114.36 0.968942 108.796C-1.77809 98.5542 0.322981 87.5986 0 77Z"
			fill="#ffffff"
			fill-rule="nonzero"
			opacity="1"
			stroke="none"
		/>
		<path
			d="M215.406-22.1875C195.229-21.9219 173.097-15.6799 153.188-15.6875C94.4501-15.7098 35.7336-14.3281-23-13.6562C-23-5.15625-23-1.4155-23 3.34375C35.0192 13.3293 91.8759 27.945 150 37.3438C150 38.3438 150 38.3437 150 39.3438C182.5 44.8438 182.5 44.8437 215 50.3438C205.353 29.5712 194.873 8.72257 190-13.6562C197.241-14.1989 210.43-17.4503 219-13.6562C220.245-13.1051 221.499-12.1907 222.031-10.9375C226.487-0.443566 230.234 10.3627 233.812 21.1875C240.284 40.7631 249.844 58.8726 257 79.3438C257.33 80.2877 257 81.3438 257 82.3438C216.401 79.933 182.98 67.7606 142 58.3438C87.136 45.7364 32 34.3437-23 22.3438C-23 26.9355-23 30.3437-23 38.3438C-15.3377 40.1424-7.66546 41.902 0 43.6875C0 45.7688 0 47.8437 0 52C71 68.6667 142.161 84.6597 213 102C246.854 110.287 280.437 120.505 315 125C315 126 315 126 315 127C323.365 128.598 318.714 128.091 329 128C321.632 94.1716 304.702 70.6442 289 38C283.398 26.3542 280.752 13.2338 273.844 2.3125C271.145-1.9542 266.211-2.80828 260.656-2.5C257.207-6.63631 253.319-10.4072 248.75-13.5625C238.921-20.3505 227.513-22.3469 215.406-22.1875ZM120.188-4.65625C140.968-4.96733 161.636-3.98186 182 0C194.214 2.38824 190.667 23.3333 195 35C134.779 26.6516 75.3771 13.0606 16 0C50.5833 0 85.554-4.13778 120.188-4.65625Z"
			fill="#ffffff"
			fill-rule="nonzero"
			opacity="1"
			stroke="none"
		/>
		<path
			d="M78.5 114.344C72.5297 114.295 69.6577 122.84 66 125C62.1695 127.262 56.8577 126.157 53.1562 128.625C50.4289 130.443 50.6476 135.068 48 137C32.4391 148.357 11.6279 153.264-0.78125 168C-6.36746 174.634-0.260241 185.331 0 194C48.0304 205.957 95.6032 222.862 145 226C143.709 221.018 143.605 215.572 141.125 211.062C139.722 208.511 135.495 208.499 134 206C121.423 184.981 111.593 162.431 99.3438 141.219C97.8657 138.659 94.4141 137.595 93 135C88.3166 126.404 92.6721 119.557 81.2812 114.938C80.291 114.536 79.3529 114.351 78.5 114.344ZM73.7188 140.906C89.1011 159.292 98.7838 181.814 110 203C79.8674 199.501 50.3165 191.795 21 184C47.3594 162.453 47.3594 162.453 73.7188 140.906Z"
			fill="#ffffff"
			fill-rule="nonzero"
			opacity="1"
			stroke="none"
		/>
		<path
			d="M343.219 157.688C338.712 156.314 331.955 165.925 330 167C324.455 170.05 318.981 167.362 315 174.062C309.044 184.086 292.425 189.784 281.469 197.219C277.717 199.765 275.696 204.375 272 207C253.703 219.996 233.844 229.622 216 243C223.236 251.373 239.44 250.829 248 253C285.713 262.567 317.301 274.448 355 277C355 278 355 278 355 279C366 281 366 281 377 283C377.975 280.076 382.126 279.586 384.625 277.781C388.858 274.724 392.211 270.594 396 267C388.214 249.414 378.538 232.694 371 215C362.512 195.078 358.483 176.819 345 159C344.469 158.298 343.863 157.884 343.219 157.688ZM335.188 191.062C335.635 191.057 336.029 191.181 336.344 191.469C339.281 194.153 344.006 206.091 345 208C355.878 228.884 367.201 242.838 370 265C344.735 263.325 325.305 255.927 300.25 248.375C287.656 244.579 252.646 240.795 286 229C286 228 286 228 286 227C297.126 224.219 308.233 204.688 320 203C320 202 320 202 320 201C322 200.5 322 200.5 324 200C324 199 324 199 324 198C326.15 197.463 332.055 191.101 335.188 191.062Z"
			fill="#ffffff"
			fill-rule="nonzero"
			opacity="1"
			stroke="none"
		/>
		<path
			d="M687 51C679.562 56.5396 671.593 61.4342 664.688 67.625C661.828 70.1885 660.765 74.3356 658 77C649.225 85.4541 637.042 91.7722 627.656 99.6562C624.569 102.249 623.187 106.531 620 109C617.443 110.981 613.445 110.482 610.969 112.562C596.63 124.607 584.201 138.793 570 151C564.521 155.71 557.609 158.521 552.094 163.188C548.861 165.923 547.168 170.189 544 173C540.815 175.826 536.722 176.701 533.438 179.438C522.274 188.741 509.988 201.528 500 210C483.199 224.251 464.461 236.246 448.625 251.562C444.874 255.191 453.947 259.424 459 266C463.738 272.166 465.195 279 470.844 286.531C472.806 289.147 476.919 289.478 479 292C481.293 294.779 481.307 298.961 483.469 301.844C485.413 304.436 489.029 305.428 491 308C503.679 324.55 514.741 342.29 527.25 358.969C532.042 365.358 538.579 370.87 541.312 378.375C547.011 376.738 551.473 371.765 555 367C576.008 338.619 597.611 309.303 617.781 281.156C634.544 257.764 649.651 233.22 666.438 209.844C673.04 200.649 686.453 194.757 687.906 183.531C693.576 139.722 687.3 95.1737 687 51ZM663 99C668 137 668 137 673 175C626.5 170.5 626.5 170.5 580 166C581.15 162.735 581.089 158.763 583.438 156.219C585.502 153.982 589.597 154.868 592 153C600.552 146.351 607.347 137.609 615.906 130.969C626.736 122.567 639.174 116.406 650 108C652.201 106.291 652.24 102.555 654.531 100.969C656.914 99.3191 660.178 99.659 663 99ZM562 183C593.872 184.107 623.621 185.608 655 190C648.08 206.681 635.372 217.946 625 232C619.96 238.83 618.383 243.514 612.938 250.5C602.712 263.619 592.536 276.778 582.125 289.75C578.769 293.932 574.301 297.798 573 303C570.5 302.5 570.5 302.5 568 302C563.862 262.188 562.921 223.024 562 183ZM543 204C543.026 272.598 543.037 272.589 543.062 341.188C507.537 296.589 507.526 296.598 472 252C494.741 234.709 515.197 210.565 543 204Z"
			fill="#ffffff"
			fill-rule="nonzero"
			opacity="1"
			stroke="none"
		/>
		<path
			d="M506 433C485.233 437.854 465.334 446.424 446.406 456.25C444.679 457.147 444.754 460.157 443 461C439.005 462.919 434.124 462.32 430.062 464.094C373.592 488.756 317.238 513.745 261.594 540.219C256.577 542.605 252.844 547.076 248.469 550.5C249.636 553.835 251.363 565.286 258 566C276.297 567.968 294.754 568.292 313.156 568.25C356.555 568.151 407.321 589.766 443.344 565.562C482.793 539.057 486.689 480.968 507 438C507.726 436.463 506.333 434.667 506 433ZM450 484C448.021 493.835 439.271 508.93 437 514C429.359 531.057 432.839 558.306 415.75 565.875C385.649 579.207 349.922 567.131 317 567.156C302.995 567.167 288.964 567.062 275 566C271.726 565.751 271.925 560.15 271 557C307 542 343.231 527.542 379 512C402.333 501.862 425.58 491.134 450 484Z"
			fill="#ffffff"
			fill-rule="nonzero"
			opacity="1"
			stroke="none"
		/>
	</g>
</svg>
