<svg width=".85rem" height=".85rem" viewBox="0 0 2 2" fill="#FFF" xmlns="http://www.w3.org/2000/svg">
<path d="M1.94259 1.07909L1.89304 1.06345C1.88475 1.06087 1.87636 1.06057 1.86802 1.05878C1.91963 1.01032 1.95872 0.944399 1.98052 0.869029C2.00233 0.793659 2.00591 0.712092 1.99084 0.634254L1.97883 0.572939C1.97463 0.551722 1.96381 0.533415 1.94871 0.522018C1.93362 0.51062 1.91548 0.507057 1.89826 0.512108L1.84852 0.526853C1.84562 0.527714 1.84312 0.529477 1.84026 0.530428C1.85345 0.462199 1.8523 0.39094 1.8369 0.323417C1.8215 0.255894 1.79238 0.194349 1.75229 0.144625L1.71619 0.100072C1.70366 0.0846217 1.68668 0.0759356 1.66897 0.0759201C1.65126 0.0759047 1.63427 0.0845611 1.62172 0.0999898L1.58549 0.144625C1.56689 0.168087 1.55065 0.194231 1.53712 0.222491C1.50915 0.155678 1.46686 0.0996104 1.41487 0.0603835C1.36287 0.0211565 1.30316 0.000271818 1.24222 1.38947e-08H1.1911C1.18232 -6.27671e-06 1.17363 0.00212347 1.16551 0.00626749C1.1574 0.0104115 1.15003 0.0164885 1.14382 0.024151C1.13761 0.0318135 1.13269 0.0409112 1.12933 0.050924C1.12597 0.0609368 1.12424 0.0716682 1.12425 0.0825046V0.145591C1.12435 0.254959 1.1596 0.359812 1.22227 0.437147C1.28493 0.514482 1.36989 0.557985 1.45851 0.558114H1.47312C1.53619 0.673018 1.57 0.808564 1.57021 0.947352C1.57021 1.13399 1.51013 1.31298 1.4032 1.44495C1.29627 1.57692 1.15124 1.65106 1.00001 1.65106C0.848786 1.65106 0.703754 1.57692 0.596821 1.44495C0.489889 1.31298 0.429815 1.13399 0.429815 0.947352C0.430021 0.808564 0.463831 0.673018 0.526905 0.558115H0.541519C0.630138 0.557986 0.715097 0.514483 0.77776 0.437148C0.840423 0.359812 0.875672 0.25496 0.875776 0.145592V0.0825054C0.875781 0.071669 0.874056 0.0609376 0.870698 0.0509248C0.86734 0.0409121 0.862416 0.0318144 0.856207 0.0241518C0.849999 0.0164893 0.842627 0.0104123 0.834514 0.00626832C0.826401 0.0021243 0.817705 -5.45054e-06 0.808925 8.40061e-07H0.75781C0.696867 0.000272056 0.637151 0.021159 0.585154 0.0603905C0.533158 0.0996219 0.490872 0.155696 0.462895 0.222516C0.449355 0.194217 0.433099 0.168037 0.414478 0.144543L0.378312 0.0999906C0.365767 0.0845619 0.348775 0.0759055 0.331064 0.075921C0.313354 0.0759364 0.296372 0.0846225 0.283845 0.100073L0.247745 0.144626C0.207652 0.194353 0.178525 0.255904 0.163129 0.323433C0.147734 0.390961 0.146582 0.462226 0.159782 0.530459C0.156893 0.529502 0.154375 0.527725 0.15145 0.526854L0.101768 0.512109C0.0845513 0.507035 0.0664063 0.510587 0.0513068 0.521988C0.0362074 0.533389 0.0253841 0.551711 0.0212071 0.57294L0.00912903 0.634416C-0.00591664 0.712254 -0.00230528 0.793812 0.0195236 0.869163C0.0413525 0.944515 0.0804577 1.01041 0.13208 1.05883C0.123716 1.06064 0.115306 1.06094 0.106986 1.06354L0.0574352 1.07909C0.0402637 1.08446 0.0255229 1.09803 0.016452 1.1168C0.00738113 1.13558 0.0047222 1.15804 0.00905951 1.17924L0.021659 1.24047C0.0324333 1.29299 0.051491 1.34238 0.0777423 1.38581C0.103994 1.42923 0.136924 1.46585 0.174649 1.49356C0.212375 1.52127 0.254156 1.53953 0.297604 1.5473C0.341053 1.55506 0.385315 1.55218 0.427861 1.53882L0.475036 1.52402C0.539724 1.61373 0.618729 1.68599 0.707099 1.73626C0.634556 1.76299 0.564706 1.79979 0.49889 1.84596C0.483537 1.85684 0.472307 1.87479 0.467666 1.89588C0.463025 1.91696 0.465352 1.93946 0.474136 1.95843C0.48292 1.9774 0.497443 1.9913 0.514519 1.99707C0.531595 2.00284 0.549829 2.00002 0.565219 1.98921C0.697741 1.89622 0.84757 1.84733 1.00002 1.84733C1.15246 1.84733 1.30229 1.89622 1.43481 1.98921C1.4502 2.00002 1.46843 2.00284 1.48551 1.99707C1.50259 1.9913 1.51711 1.9774 1.52589 1.95843C1.53468 1.93946 1.537 1.91696 1.53236 1.89588C1.52772 1.87479 1.51649 1.85684 1.50114 1.84596C1.43532 1.79979 1.36547 1.76299 1.29293 1.73626C1.3813 1.68599 1.4603 1.61374 1.52499 1.52402L1.57217 1.5389C1.65812 1.56579 1.7492 1.54944 1.82539 1.49347C1.90157 1.43749 1.95662 1.34645 1.97844 1.24039L1.99097 1.17924C1.99531 1.15804 1.99265 1.13558 1.98358 1.1168C1.97451 1.09802 1.95976 1.08446 1.94259 1.07909ZM0.741421 0.165815C0.737455 0.224245 0.716847 0.279051 0.683252 0.320511C0.649658 0.361972 0.605249 0.387406 0.557905 0.3923C0.561871 0.333871 0.58248 0.279064 0.616074 0.237604C0.649668 0.196143 0.694077 0.17071 0.741421 0.165815ZM0.331107 0.276197C0.361775 0.320971 0.378601 0.377704 0.378601 0.436332C0.378601 0.49496 0.361775 0.551693 0.331107 0.596467C0.300439 0.551693 0.283612 0.49496 0.283612 0.436332C0.283612 0.377704 0.300439 0.320971 0.331107 0.276197ZM0.135971 0.69283C0.18109 0.711233 0.219461 0.748783 0.244264 0.798807C0.269066 0.848831 0.278694 0.908088 0.271436 0.966045C0.226326 0.947625 0.187966 0.910071 0.163165 0.860052C0.138365 0.810033 0.12873 0.750785 0.135971 0.69283ZM0.155883 1.21928C0.20275 1.20959 0.250884 1.22073 0.29172 1.25073C0.332556 1.28072 0.363447 1.32762 0.378896 1.38308C0.332033 1.39272 0.283917 1.38156 0.243091 1.35157C0.202264 1.32158 0.171367 1.27471 0.155883 1.21928ZM1.86406 0.69283C1.87131 0.750788 1.86169 0.810044 1.83688 0.860068C1.81208 0.910092 1.77371 0.947642 1.72859 0.966045C1.72133 0.908088 1.73096 0.848831 1.75576 0.798807C1.78057 0.748783 1.81894 0.711233 1.86406 0.69283ZM1.66892 0.276197C1.69959 0.320971 1.71641 0.377704 1.71641 0.436332C1.71641 0.49496 1.69959 0.551693 1.66892 0.596467C1.63825 0.551693 1.62142 0.49496 1.62142 0.436332C1.62142 0.377704 1.63825 0.320971 1.66892 0.276197ZM1.25861 0.165815C1.30595 0.17071 1.35036 0.196143 1.38395 0.237604C1.41755 0.279064 1.43815 0.333871 1.44212 0.3923C1.39478 0.387406 1.35037 0.361972 1.31677 0.320511C1.28318 0.279051 1.26257 0.224245 1.25861 0.165815ZM1.62113 1.38308C1.63661 1.32764 1.66751 1.28077 1.70834 1.25078C1.74916 1.22079 1.79728 1.20963 1.84415 1.21928C1.82866 1.27471 1.79776 1.32157 1.75693 1.35156C1.71611 1.38154 1.66799 1.39271 1.62113 1.38308Z" fill="white"/>
</svg>