<?xml version="1.0" encoding="UTF-8" standalone="no"?>
<!DOCTYPE svg PUBLIC "-//W3C//DTD SVG 1.1//EN" "http://www.w3.org/Graphics/SVG/1.1/DTD/svg11.dtd">
<!-- Created with Vectornator (http://vectornator.io/) -->
<svg height="100%" stroke-miterlimit="10" style="fill-rule:nonzero;clip-rule:evenodd;stroke-linecap:round;stroke-linejoin:round;" version="1.1" viewBox="0 0 144 148" width="100%" xml:space="preserve" xmlns="http://www.w3.org/2000/svg" xmlns:xlink="http://www.w3.org/1999/xlink">
<defs/>
<g id="Chrome">
<path d="M0 2.39977C0 1.07441 1.0763 0 2.39411 0L141.606 0C142.928 0 144 1.07506 144 2.39977L144 148L0 148L0 2.39977Z" fill="#eff6fe" fill-rule="evenodd" opacity="1" stroke="none"/>
<g opacity="1">
<path d="M0 2.40758C0 1.07791 1.0763 0 2.39411 0L141.606 0C142.928 0 144 1.0693 144 2.40758L144 12.8L0 12.8L0 2.40758Z" fill="#58a8f7" fill-rule="evenodd" opacity="0.196641" stroke="none"/>
<path d="M6 4.8C7.10457 4.8 8 5.69543 8 6.8C8 7.90457 7.10457 8.8 6 8.8C4.89543 8.8 4 7.90457 4 6.8C4 5.69543 4.89543 4.8 6 4.8ZM12.4 4.8C13.5046 4.8 14.4 5.69543 14.4 6.8C14.4 7.90457 13.5046 8.8 12.4 8.8C11.2954 8.8 10.4 7.90457 10.4 6.8C10.4 5.69543 11.2954 4.8 12.4 4.8ZM18.8 4.8C19.9046 4.8 20.8 5.69543 20.8 6.8C20.8 7.90457 19.9046 8.8 18.8 8.8C17.6954 8.8 16.8 7.90457 16.8 6.8C16.8 5.69543 17.6954 4.8 18.8 4.8Z" fill="#0d87ff" fill-rule="evenodd" opacity="0.498717" stroke="none"/>
</g>
</g>
<g id="Calendar" visibility="hidden">
<path d="M23.8767 36.8L120.923 36.8C121.993 36.8 122.381 36.9114 122.772 37.1206C123.163 37.3297 123.47 37.6367 123.679 38.0278C123.889 38.4189 124 38.8068 124 39.8767L124 112.923C124 113.993 123.889 114.381 123.679 114.772C123.47 115.163 123.163 115.47 122.772 115.679C122.381 115.889 121.993 116 120.923 116L23.8767 116C22.8068 116 22.4189 115.889 22.0278 115.679C21.6367 115.47 21.3297 115.163 21.1206 114.772C20.9114 114.381 20.8 113.993 20.8 112.923L20.8 39.8767C20.8 38.8068 20.9114 38.4189 21.1206 38.0278C21.3297 37.6367 21.6367 37.3297 22.0278 37.1206C22.4189 36.9114 22.8068 36.8 23.8767 36.8Z" fill="#ffffff" fill-rule="evenodd" opacity="1" stroke="none"/>
<g opacity="1">
<path d="M31.2 59.2L36.8 59.2C38.1255 59.2 39.2 60.2745 39.2 61.6L39.2 67.2C39.2 68.5255 38.1255 69.6 36.8 69.6L31.2 69.6C29.8745 69.6 28.8 68.5255 28.8 67.2L28.8 61.6C28.8 60.2745 29.8745 59.2 31.2 59.2Z" fill="#58a8f7" fill-rule="evenodd" opacity="0.09663" stroke="none"/>
<path d="M44 59.2L49.6 59.2C50.9255 59.2 52 60.2745 52 61.6L52 67.2C52 68.5255 50.9255 69.6 49.6 69.6L44 69.6C42.6745 69.6 41.6 68.5255 41.6 67.2L41.6 61.6C41.6 60.2745 42.6745 59.2 44 59.2Z" fill="#58a8f7" fill-rule="evenodd" opacity="0.09663" stroke="none"/>
<path d="M57.4767 59.2L61.7233 59.2C62.7932 59.2 63.1811 59.3114 63.5722 59.5206C63.9633 59.7297 64.2703 60.0367 64.4794 60.4278C64.6886 60.8189 64.8 61.2068 64.8 62.2767L64.8 66.5233C64.8 67.5932 64.6886 67.9811 64.4794 68.3722C64.2703 68.7633 63.9633 69.0703 63.5722 69.2794C63.1811 69.4886 62.7932 69.6 61.7233 69.6L57.4767 69.6C56.4068 69.6 56.0189 69.4886 55.6278 69.2794C55.2367 69.0703 54.9297 68.7633 54.7206 68.3722C54.5114 67.9811 54.4 67.5932 54.4 66.5233L54.4 62.2767C54.4 61.2068 54.5114 60.8189 54.7206 60.4278C54.9297 60.0367 55.2367 59.7297 55.6278 59.5206C56.0189 59.3114 56.4068 59.2 57.4767 59.2Z" fill="#58a8f7" fill-rule="evenodd" opacity="0.498717" stroke="none"/>
<path d="M70.2767 59.2L74.5233 59.2C75.5932 59.2 75.9811 59.3114 76.3722 59.5206C76.7633 59.7297 77.0703 60.0367 77.2794 60.4278C77.4886 60.8189 77.6 61.2068 77.6 62.2767L77.6 66.5233C77.6 67.5932 77.4886 67.9811 77.2794 68.3722C77.0703 68.7633 76.7633 69.0703 76.3722 69.2794C75.9811 69.4886 75.5932 69.6 74.5233 69.6L70.2767 69.6C69.2068 69.6 68.8189 69.4886 68.4278 69.2794C68.0367 69.0703 67.7297 68.7633 67.5206 68.3722C67.3114 67.9811 67.2 67.5932 67.2 66.5233L67.2 62.2767C67.2 61.2068 67.3114 60.8189 67.5206 60.4278C67.7297 60.0367 68.0367 59.7297 68.4278 59.5206C68.8189 59.3114 69.2068 59.2 70.2767 59.2Z" fill="#58a8f7" fill-rule="evenodd" opacity="0.498717" stroke="none"/>
<path d="M83.0767 59.2L87.3233 59.2C88.3932 59.2 88.7811 59.3114 89.1722 59.5206C89.5633 59.7297 89.8703 60.0367 90.0794 60.4278C90.2886 60.8189 90.4 61.2068 90.4 62.2767L90.4 66.5233C90.4 67.5932 90.2886 67.9811 90.0794 68.3722C89.8703 68.7633 89.5633 69.0703 89.1722 69.2794C88.7811 69.4886 88.3932 69.6 87.3233 69.6L83.0767 69.6C82.0068 69.6 81.6189 69.4886 81.2278 69.2794C80.8367 69.0703 80.5297 68.7633 80.3206 68.3722C80.1114 67.9811 80 67.5932 80 66.5233L80 62.2767C80 61.2068 80.1114 60.8189 80.3206 60.4278C80.5297 60.0367 80.8367 59.7297 81.2278 59.5206C81.6189 59.3114 82.0068 59.2 83.0767 59.2Z" fill="#58a8f7" fill-rule="evenodd" opacity="0.498717" stroke="none"/>
<path d="M95.8767 59.2L100.123 59.2C101.193 59.2 101.581 59.3114 101.972 59.5206C102.363 59.7297 102.67 60.0367 102.879 60.4278C103.089 60.8189 103.2 61.2068 103.2 62.2767L103.2 66.5233C103.2 67.5932 103.089 67.9811 102.879 68.3722C102.67 68.7633 102.363 69.0703 101.972 69.2794C101.581 69.4886 101.193 69.6 100.123 69.6L95.8767 69.6C94.8068 69.6 94.4189 69.4886 94.0278 69.2794C93.6367 69.0703 93.3297 68.7633 93.1206 68.3722C92.9114 67.9811 92.8 67.5932 92.8 66.5233L92.8 62.2767C92.8 61.2068 92.9114 60.8189 93.1206 60.4278C93.3297 60.0367 93.6367 59.7297 94.0278 59.5206C94.4189 59.3114 94.8068 59.2 95.8767 59.2Z" fill="#58a8f7" fill-rule="evenodd" opacity="0.498717" stroke="none"/>
<path d="M108.677 59.2L112.923 59.2C113.993 59.2 114.381 59.3114 114.772 59.5206C115.163 59.7297 115.47 60.0367 115.679 60.4278C115.889 60.8189 116 61.2068 116 62.2767L116 66.5233C116 67.5932 115.889 67.9811 115.679 68.3722C115.47 68.7633 115.163 69.0703 114.772 69.2794C114.381 69.4886 113.993 69.6 112.923 69.6L108.677 69.6C107.607 69.6 107.219 69.4886 106.828 69.2794C106.437 69.0703 106.13 68.7633 105.921 68.3722C105.711 67.9811 105.6 67.5932 105.6 66.5233L105.6 62.2767C105.6 61.2068 105.711 60.8189 105.921 60.4278C106.13 60.0367 106.437 59.7297 106.828 59.5206C107.219 59.3114 107.607 59.2 108.677 59.2Z" fill="#58a8f7" fill-rule="evenodd" opacity="0.498717" stroke="none"/>
<path d="M31.8767 72L36.1233 72C37.1932 72 37.5811 72.1114 37.9722 72.3206C38.3633 72.5297 38.6703 72.8367 38.8794 73.2278C39.0886 73.6189 39.2 74.0068 39.2 75.0767L39.2 79.3233C39.2 80.3932 39.0886 80.7811 38.8794 81.1722C38.6703 81.5633 38.3633 81.8703 37.9722 82.0794C37.5811 82.2886 37.1932 82.4 36.1233 82.4L31.8767 82.4C30.8068 82.4 30.4189 82.2886 30.0278 82.0794C29.6367 81.8703 29.3297 81.5633 29.1206 81.1722C28.9114 80.7811 28.8 80.3932 28.8 79.3233L28.8 75.0767C28.8 74.0068 28.9114 73.6189 29.1206 73.2278C29.3297 72.8367 29.6367 72.5297 30.0278 72.3206C30.4189 72.1114 30.8068 72 31.8767 72Z" fill="#58a8f7" fill-rule="evenodd" opacity="0.498717" stroke="none"/>
<path d="M44.6767 72L48.9233 72C49.9932 72 50.3811 72.1114 50.7722 72.3206C51.1633 72.5297 51.4703 72.8367 51.6794 73.2278C51.8886 73.6189 52 74.0068 52 75.0767L52 79.3233C52 80.3932 51.8886 80.7811 51.6794 81.1722C51.4703 81.5633 51.1633 81.8703 50.7722 82.0794C50.3811 82.2886 49.9932 82.4 48.9233 82.4L44.6767 82.4C43.6068 82.4 43.2189 82.2886 42.8278 82.0794C42.4367 81.8703 42.1297 81.5633 41.9206 81.1722C41.7114 80.7811 41.6 80.3932 41.6 79.3233L41.6 75.0767C41.6 74.0068 41.7114 73.6189 41.9206 73.2278C42.1297 72.8367 42.4367 72.5297 42.8278 72.3206C43.2189 72.1114 43.6068 72 44.6767 72Z" fill="#58a8f7" fill-rule="evenodd" opacity="0.498717" stroke="none"/>
<path d="M57.4767 72L61.7233 72C62.7932 72 63.1811 72.1114 63.5722 72.3206C63.9633 72.5297 64.2703 72.8367 64.4794 73.2278C64.6886 73.6189 64.8 74.0068 64.8 75.0767L64.8 79.3233C64.8 80.3932 64.6886 80.7811 64.4794 81.1722C64.2703 81.5633 63.9633 81.8703 63.5722 82.0794C63.1811 82.2886 62.7932 82.4 61.7233 82.4L57.4767 82.4C56.4068 82.4 56.0189 82.2886 55.6278 82.0794C55.2367 81.8703 54.9297 81.5633 54.7206 81.1722C54.5114 80.7811 54.4 80.3932 54.4 79.3233L54.4 75.0767C54.4 74.0068 54.5114 73.6189 54.7206 73.2278C54.9297 72.8367 55.2367 72.5297 55.6278 72.3206C56.0189 72.1114 56.4068 72 57.4767 72Z" fill="#58a8f7" fill-rule="evenodd" opacity="0.498717" stroke="none"/>
<path d="M70.2767 72L74.5233 72C75.5932 72 75.9811 72.1114 76.3722 72.3206C76.7633 72.5297 77.0703 72.8367 77.2794 73.2278C77.4886 73.6189 77.6 74.0068 77.6 75.0767L77.6 79.3233C77.6 80.3932 77.4886 80.7811 77.2794 81.1722C77.0703 81.5633 76.7633 81.8703 76.3722 82.0794C75.9811 82.2886 75.5932 82.4 74.5233 82.4L70.2767 82.4C69.2068 82.4 68.8189 82.2886 68.4278 82.0794C68.0367 81.8703 67.7297 81.5633 67.5206 81.1722C67.3114 80.7811 67.2 80.3932 67.2 79.3233L67.2 75.0767C67.2 74.0068 67.3114 73.6189 67.5206 73.2278C67.7297 72.8367 68.0367 72.5297 68.4278 72.3206C68.8189 72.1114 69.2068 72 70.2767 72Z" fill="#58a8f7" fill-rule="evenodd" opacity="0.498717" stroke="none"/>
<path d="M83.0767 72L87.3233 72C88.3932 72 88.7811 72.1114 89.1722 72.3206C89.5633 72.5297 89.8703 72.8367 90.0794 73.2278C90.2886 73.6189 90.4 74.0068 90.4 75.0767L90.4 79.3233C90.4 80.3932 90.2886 80.7811 90.0794 81.1722C89.8703 81.5633 89.5633 81.8703 89.1722 82.0794C88.7811 82.2886 88.3932 82.4 87.3233 82.4L83.0767 82.4C82.0068 82.4 81.6189 82.2886 81.2278 82.0794C80.8367 81.8703 80.5297 81.5633 80.3206 81.1722C80.1114 80.7811 80 80.3932 80 79.3233L80 75.0767C80 74.0068 80.1114 73.6189 80.3206 73.2278C80.5297 72.8367 80.8367 72.5297 81.2278 72.3206C81.6189 72.1114 82.0068 72 83.0767 72Z" fill="#58a8f7" fill-rule="evenodd" opacity="0.498717" stroke="none"/>
<path d="M95.8767 72L100.123 72C101.193 72 101.581 72.1114 101.972 72.3206C102.363 72.5297 102.67 72.8367 102.879 73.2278C103.089 73.6189 103.2 74.0068 103.2 75.0767L103.2 79.3233C103.2 80.3932 103.089 80.7811 102.879 81.1722C102.67 81.5633 102.363 81.8703 101.972 82.0794C101.581 82.2886 101.193 82.4 100.123 82.4L95.8767 82.4C94.8068 82.4 94.4189 82.2886 94.0278 82.0794C93.6367 81.8703 93.3297 81.5633 93.1206 81.1722C92.9114 80.7811 92.8 80.3932 92.8 79.3233L92.8 75.0767C92.8 74.0068 92.9114 73.6189 93.1206 73.2278C93.3297 72.8367 93.6367 72.5297 94.0278 72.3206C94.4189 72.1114 94.8068 72 95.8767 72Z" fill="#58a8f7" fill-rule="evenodd" opacity="0.498717" stroke="none"/>
<path d="M108.677 72L112.923 72C113.993 72 114.381 72.1114 114.772 72.3206C115.163 72.5297 115.47 72.8367 115.679 73.2278C115.889 73.6189 116 74.0068 116 75.0767L116 79.3233C116 80.3932 115.889 80.7811 115.679 81.1722C115.47 81.5633 115.163 81.8703 114.772 82.0794C114.381 82.2886 113.993 82.4 112.923 82.4L108.677 82.4C107.607 82.4 107.219 82.2886 106.828 82.0794C106.437 81.8703 106.13 81.5633 105.921 81.1722C105.711 80.7811 105.6 80.3932 105.6 79.3233L105.6 75.0767C105.6 74.0068 105.711 73.6189 105.921 73.2278C106.13 72.8367 106.437 72.5297 106.828 72.3206C107.219 72.1114 107.607 72 108.677 72Z" fill="#58a8f7" fill-rule="evenodd" opacity="0.498717" stroke="none"/>
<path d="M31.8767 84.8L36.1233 84.8C37.1932 84.8 37.5811 84.9114 37.9722 85.1206C38.3633 85.3297 38.6703 85.6367 38.8794 86.0278C39.0886 86.4189 39.2 86.8068 39.2 87.8767L39.2 92.1233C39.2 93.1932 39.0886 93.5811 38.8794 93.9722C38.6703 94.3633 38.3633 94.6703 37.9722 94.8794C37.5811 95.0886 37.1932 95.2 36.1233 95.2L31.8767 95.2C30.8068 95.2 30.4189 95.0886 30.0278 94.8794C29.6367 94.6703 29.3297 94.3633 29.1206 93.9722C28.9114 93.5811 28.8 93.1932 28.8 92.1233L28.8 87.8767C28.8 86.8068 28.9114 86.4189 29.1206 86.0278C29.3297 85.6367 29.6367 85.3297 30.0278 85.1206C30.4189 84.9114 30.8068 84.8 31.8767 84.8Z" fill="#58a8f7" fill-rule="evenodd" opacity="0.498717" stroke="none"/>
<path d="M44.6767 84.8L48.9233 84.8C49.9932 84.8 50.3811 84.9114 50.7722 85.1206C51.1633 85.3297 51.4703 85.6367 51.6794 86.0278C51.8886 86.4189 52 86.8068 52 87.8767L52 92.1233C52 93.1932 51.8886 93.5811 51.6794 93.9722C51.4703 94.3633 51.1633 94.6703 50.7722 94.8794C50.3811 95.0886 49.9932 95.2 48.9233 95.2L44.6767 95.2C43.6068 95.2 43.2189 95.0886 42.8278 94.8794C42.4367 94.6703 42.1297 94.3633 41.9206 93.9722C41.7114 93.5811 41.6 93.1932 41.6 92.1233L41.6 87.8767C41.6 86.8068 41.7114 86.4189 41.9206 86.0278C42.1297 85.6367 42.4367 85.3297 42.8278 85.1206C43.2189 84.9114 43.6068 84.8 44.6767 84.8Z" fill="#58a8f7" fill-rule="evenodd" opacity="0.498717" stroke="none"/>
<path d="M57.4767 84.8L61.7233 84.8C62.7932 84.8 63.1811 84.9114 63.5722 85.1206C63.9633 85.3297 64.2703 85.6367 64.4794 86.0278C64.6886 86.4189 64.8 86.8068 64.8 87.8767L64.8 92.1233C64.8 93.1932 64.6886 93.5811 64.4794 93.9722C64.2703 94.3633 63.9633 94.6703 63.5722 94.8794C63.1811 95.0886 62.7932 95.2 61.7233 95.2L57.4767 95.2C56.4068 95.2 56.0189 95.0886 55.6278 94.8794C55.2367 94.6703 54.9297 94.3633 54.7206 93.9722C54.5114 93.5811 54.4 93.1932 54.4 92.1233L54.4 87.8767C54.4 86.8068 54.5114 86.4189 54.7206 86.0278C54.9297 85.6367 55.2367 85.3297 55.6278 85.1206C56.0189 84.9114 56.4068 84.8 57.4767 84.8Z" fill="#58a8f7" fill-rule="evenodd" opacity="0.498717" stroke="none"/>
<path d="M70.2767 84.8L74.5233 84.8C75.5932 84.8 75.9811 84.9114 76.3722 85.1206C76.7633 85.3297 77.0703 85.6367 77.2794 86.0278C77.4886 86.4189 77.6 86.8068 77.6 87.8767L77.6 92.1233C77.6 93.1932 77.4886 93.5811 77.2794 93.9722C77.0703 94.3633 76.7633 94.6703 76.3722 94.8794C75.9811 95.0886 75.5932 95.2 74.5233 95.2L70.2767 95.2C69.2068 95.2 68.8189 95.0886 68.4278 94.8794C68.0367 94.6703 67.7297 94.3633 67.5206 93.9722C67.3114 93.5811 67.2 93.1932 67.2 92.1233L67.2 87.8767C67.2 86.8068 67.3114 86.4189 67.5206 86.0278C67.7297 85.6367 68.0367 85.3297 68.4278 85.1206C68.8189 84.9114 69.2068 84.8 70.2767 84.8Z" fill="#0d87ff" fill-rule="evenodd" opacity="1" stroke="none"/>
<path d="M83.0767 84.8L87.3233 84.8C88.3932 84.8 88.7811 84.9114 89.1722 85.1206C89.5633 85.3297 89.8703 85.6367 90.0794 86.0278C90.2886 86.4189 90.4 86.8068 90.4 87.8767L90.4 92.1233C90.4 93.1932 90.2886 93.5811 90.0794 93.9722C89.8703 94.3633 89.5633 94.6703 89.1722 94.8794C88.7811 95.0886 88.3932 95.2 87.3233 95.2L83.0767 95.2C82.0068 95.2 81.6189 95.0886 81.2278 94.8794C80.8367 94.6703 80.5297 94.3633 80.3206 93.9722C80.1114 93.5811 80 93.1932 80 92.1233L80 87.8767C80 86.8068 80.1114 86.4189 80.3206 86.0278C80.5297 85.6367 80.8367 85.3297 81.2278 85.1206C81.6189 84.9114 82.0068 84.8 83.0767 84.8Z" fill="#58a8f7" fill-rule="evenodd" opacity="0.498717" stroke="none"/>
<path d="M95.8767 84.8L100.123 84.8C101.193 84.8 101.581 84.9114 101.972 85.1206C102.363 85.3297 102.67 85.6367 102.879 86.0278C103.089 86.4189 103.2 86.8068 103.2 87.8767L103.2 92.1233C103.2 93.1932 103.089 93.5811 102.879 93.9722C102.67 94.3633 102.363 94.6703 101.972 94.8794C101.581 95.0886 101.193 95.2 100.123 95.2L95.8767 95.2C94.8068 95.2 94.4189 95.0886 94.0278 94.8794C93.6367 94.6703 93.3297 94.3633 93.1206 93.9722C92.9114 93.5811 92.8 93.1932 92.8 92.1233L92.8 87.8767C92.8 86.8068 92.9114 86.4189 93.1206 86.0278C93.3297 85.6367 93.6367 85.3297 94.0278 85.1206C94.4189 84.9114 94.8068 84.8 95.8767 84.8Z" fill="#58a8f7" fill-rule="evenodd" opacity="0.498717" stroke="none"/>
<path d="M108.677 84.8L112.923 84.8C113.993 84.8 114.381 84.9114 114.772 85.1206C115.163 85.3297 115.47 85.6367 115.679 86.0278C115.889 86.4189 116 86.8068 116 87.8767L116 92.1233C116 93.1932 115.889 93.5811 115.679 93.9722C115.47 94.3633 115.163 94.6703 114.772 94.8794C114.381 95.0886 113.993 95.2 112.923 95.2L108.677 95.2C107.607 95.2 107.219 95.0886 106.828 94.8794C106.437 94.6703 106.13 94.3633 105.921 93.9722C105.711 93.5811 105.6 93.1932 105.6 92.1233L105.6 87.8767C105.6 86.8068 105.711 86.4189 105.921 86.0278C106.13 85.6367 106.437 85.3297 106.828 85.1206C107.219 84.9114 107.607 84.8 108.677 84.8Z" fill="#58a8f7" fill-rule="evenodd" opacity="0.498717" stroke="none"/>
<path d="M31.8767 97.6L36.1233 97.6C37.1932 97.6 37.5811 97.7114 37.9722 97.9206C38.3633 98.1297 38.6703 98.4367 38.8794 98.8278C39.0886 99.2189 39.2 99.6068 39.2 100.677L39.2 104.923C39.2 105.993 39.0886 106.381 38.8794 106.772C38.6703 107.163 38.3633 107.47 37.9722 107.679C37.5811 107.889 37.1932 108 36.1233 108L31.8767 108C30.8068 108 30.4189 107.889 30.0278 107.679C29.6367 107.47 29.3297 107.163 29.1206 106.772C28.9114 106.381 28.8 105.993 28.8 104.923L28.8 100.677C28.8 99.6068 28.9114 99.2189 29.1206 98.8278C29.3297 98.4367 29.6367 98.1297 30.0278 97.9206C30.4189 97.7114 30.8068 97.6 31.8767 97.6Z" fill="#58a8f7" fill-rule="evenodd" opacity="0.498717" stroke="none"/>
<path d="M44.6767 97.6L48.9233 97.6C49.9932 97.6 50.3811 97.7114 50.7722 97.9206C51.1633 98.1297 51.4703 98.4367 51.6794 98.8278C51.8886 99.2189 52 99.6068 52 100.677L52 104.923C52 105.993 51.8886 106.381 51.6794 106.772C51.4703 107.163 51.1633 107.47 50.7722 107.679C50.3811 107.889 49.9932 108 48.9233 108L44.6767 108C43.6068 108 43.2189 107.889 42.8278 107.679C42.4367 107.47 42.1297 107.163 41.9206 106.772C41.7114 106.381 41.6 105.993 41.6 104.923L41.6 100.677C41.6 99.6068 41.7114 99.2189 41.9206 98.8278C42.1297 98.4367 42.4367 98.1297 42.8278 97.9206C43.2189 97.7114 43.6068 97.6 44.6767 97.6Z" fill="#58a8f7" fill-rule="evenodd" opacity="0.498717" stroke="none"/>
<path d="M57.4767 97.6L61.7233 97.6C62.7932 97.6 63.1811 97.7114 63.5722 97.9206C63.9633 98.1297 64.2703 98.4367 64.4794 98.8278C64.6886 99.2189 64.8 99.6068 64.8 100.677L64.8 104.923C64.8 105.993 64.6886 106.381 64.4794 106.772C64.2703 107.163 63.9633 107.47 63.5722 107.679C63.1811 107.889 62.7932 108 61.7233 108L57.4767 108C56.4068 108 56.0189 107.889 55.6278 107.679C55.2367 107.47 54.9297 107.163 54.7206 106.772C54.5114 106.381 54.4 105.993 54.4 104.923L54.4 100.677C54.4 99.6068 54.5114 99.2189 54.7206 98.8278C54.9297 98.4367 55.2367 98.1297 55.6278 97.9206C56.0189 97.7114 56.4068 97.6 57.4767 97.6Z" fill="#58a8f7" fill-rule="evenodd" opacity="0.498717" stroke="none"/>
<path d="M70.2767 97.6L74.5233 97.6C75.5932 97.6 75.9811 97.7114 76.3722 97.9206C76.7633 98.1297 77.0703 98.4367 77.2794 98.8278C77.4886 99.2189 77.6 99.6068 77.6 100.677L77.6 104.923C77.6 105.993 77.4886 106.381 77.2794 106.772C77.0703 107.163 76.7633 107.47 76.3722 107.679C75.9811 107.889 75.5932 108 74.5233 108L70.2767 108C69.2068 108 68.8189 107.889 68.4278 107.679C68.0367 107.47 67.7297 107.163 67.5206 106.772C67.3114 106.381 67.2 105.993 67.2 104.923L67.2 100.677C67.2 99.6068 67.3114 99.2189 67.5206 98.8278C67.7297 98.4367 68.0367 98.1297 68.4278 97.9206C68.8189 97.7114 69.2068 97.6 70.2767 97.6Z" fill="#58a8f7" fill-rule="evenodd" opacity="0.498717" stroke="none"/>
<path d="M83.0767 97.6L87.3233 97.6C88.3932 97.6 88.7811 97.7114 89.1722 97.9206C89.5633 98.1297 89.8703 98.4367 90.0794 98.8278C90.2886 99.2189 90.4 99.6068 90.4 100.677L90.4 104.923C90.4 105.993 90.2886 106.381 90.0794 106.772C89.8703 107.163 89.5633 107.47 89.1722 107.679C88.7811 107.889 88.3932 108 87.3233 108L83.0767 108C82.0068 108 81.6189 107.889 81.2278 107.679C80.8367 107.47 80.5297 107.163 80.3206 106.772C80.1114 106.381 80 105.993 80 104.923L80 100.677C80 99.6068 80.1114 99.2189 80.3206 98.8278C80.5297 98.4367 80.8367 98.1297 81.2278 97.9206C81.6189 97.7114 82.0068 97.6 83.0767 97.6Z" fill="#58a8f7" fill-rule="evenodd" opacity="0.498717" stroke="none"/>
<path d="M95.2 97.6L100.8 97.6C102.125 97.6 103.2 98.6745 103.2 100L103.2 105.6C103.2 106.925 102.125 108 100.8 108L95.2 108C93.8745 108 92.8 106.925 92.8 105.6L92.8 100C92.8 98.6745 93.8745 97.6 95.2 97.6Z" fill="#58a8f7" fill-rule="evenodd" opacity="0.09663" stroke="none"/>
<path d="M108 97.6L113.6 97.6C114.925 97.6 116 98.6745 116 100L116 105.6C116 106.925 114.925 108 113.6 108L108 108C106.675 108 105.6 106.925 105.6 105.6L105.6 100C105.6 98.6745 106.675 97.6 108 97.6Z" fill="#58a8f7" fill-rule="evenodd" opacity="0.09663" stroke="none"/>
</g>
<g opacity="1">
<path d="M52 44L92 44L92 50.4L52 50.4L52 44Z" fill="#58a8f7" fill-rule="evenodd" opacity="0.498717" stroke="none"/>
<path d="M112 51.2L116 47.2L112 43.2L111.2 44L114.4 47.2L111.2 50.4L112 51.2Z" fill="#0d87ff" fill-rule="evenodd" opacity="1" stroke="none"/>
<path d="M32.8 51.2L28.8 47.2L32.8 43.2L33.6 44L30.4 47.2L33.6 50.4L32.8 51.2Z" fill="#0d87ff" fill-rule="evenodd" opacity="1" stroke="none"/>
</g>
</g>
<clipPath id="ArtboardFrame">
<rect height="148" width="144" x="0" y="0"/>
</clipPath>
<g clip-path="url(#ArtboardFrame)" id="Blog" visibility="hidden">
<g opacity="1">
<path d="M6.43584 19.9976C6.43584 19.4116 6.88097 18.9365 7.42599 18.9365L65.0014 18.9365C65.5482 18.9365 65.9915 19.4118 65.9915 19.9976L65.9915 84.3805L6.43584 84.3805L6.43584 19.9976Z" fill="#ffffff" fill-rule="evenodd" opacity="1" stroke="none"/>
<g opacity="1">
<path d="M8 56.8L17.6 56.8L17.6 59.2L8 59.2L8 56.8Z" fill="#58a8f7" fill-rule="evenodd" opacity="0.248922" stroke="none"/>
<path d="M8 75.2L38.4 75.2L38.4 77.6L8 77.6L8 75.2Z" fill="#58a8f7" fill-rule="evenodd" opacity="0.248922" stroke="none"/>
<path d="M8 69.6L59.2 69.6L59.2 72L8 72L8 69.6Z" fill="#58a8f7" fill-rule="evenodd" opacity="0.248922" stroke="none"/>
<path d="M8 61.6L48 61.6L48 65.6L8 65.6L8 61.6Z" fill="#58a8f7" fill-rule="evenodd" opacity="0.496933" stroke="none"/>
</g>
<g opacity="1">
<path d="M8.70024 20.8L63.3191 20.8C63.7058 20.8 64.0193 21.1661 64.0193 21.6177L64.0193 53.5078C64.0193 53.9594 63.7058 54.3255 63.3191 54.3255L8.70024 54.3255C8.31351 54.3255 8 53.9594 8 53.5078L8 21.6177C8 21.1661 8.31351 20.8 8.70024 20.8Z" fill="#58a8f7" fill-rule="evenodd" opacity="0.196641" stroke="none"/>
<g opacity="1">
<path d="M23.5937 37.0313C17.5542 37.0312 12.8109 40.9678 8 46.25L8 53.6562C8 54.0309 8.30077 54.3125 8.6875 54.3125C20.2799 54.3125 37.5056 54.3125 46.1562 54.3125C38.2104 45.2615 32.4808 37.0313 23.5937 37.0313Z" fill="#0d87ff" fill-rule="nonzero" opacity="0.198471" stroke="none"/>
<path d="M51.25 39.4062C42.9355 39.4063 35.6916 47.2689 28.6562 54.3125L63.3125 54.3125C63.6992 54.3125 64.0313 54.0309 64.0313 53.6562L64.0313 46.125C60.0928 42.1059 56.4947 39.4062 51.25 39.4062Z" fill="#58a8f7" fill-rule="nonzero" opacity="0.196641" stroke="none"/>
</g>
<path d="M34.3325 29.6C34.3325 27.4235 36.0969 25.659 38.2735 25.659C40.45 25.659 42.2144 27.4235 42.2144 29.6C42.2144 31.7765 40.45 33.541 38.2735 33.541C36.0969 33.541 34.3325 31.7765 34.3325 29.6Z" fill="#58a8f7" fill-rule="evenodd" opacity="0.498717" stroke="none"/>
</g>
</g>
<g opacity="1">
<path d="M6.43584 93.2226C6.43584 92.6365 6.88097 92.1614 7.42599 92.1614L65.0014 92.1614C65.5482 92.1614 65.9915 92.6368 65.9915 93.2226L65.9915 157.605L6.43584 157.605L6.43584 93.2226Z" fill="#ffffff" fill-rule="evenodd" opacity="1" stroke="none"/>
<g opacity="1">
<path d="M8 130.025L17.6 130.025L17.6 132.425L8 132.425L8 130.025Z" fill="#58a8f7" fill-rule="evenodd" opacity="0.248922" stroke="none"/>
<path d="M8 148.425L38.4 148.425L38.4 150.825L8 150.825L8 148.425Z" fill="#58a8f7" fill-rule="evenodd" opacity="0.248922" stroke="none"/>
<path d="M8 142.825L59.2 142.825L59.2 145.225L8 145.225L8 142.825Z" fill="#58a8f7" fill-rule="evenodd" opacity="0.248922" stroke="none"/>
<path d="M8 134.825L48 134.825L48 138.825L8 138.825L8 134.825Z" fill="#58a8f7" fill-rule="evenodd" opacity="0.496933" stroke="none"/>
</g>
<g opacity="1">
<path d="M8.70024 94.025L63.3191 94.025C63.7058 94.025 64.0193 94.3911 64.0193 94.8427L64.0193 126.733C64.0193 127.184 63.7058 127.551 63.3191 127.551L8.70024 127.551C8.31351 127.551 8 127.184 8 126.733L8 94.8427C8 94.3911 8.31351 94.025 8.70024 94.025Z" fill="#58a8f7" fill-rule="evenodd" opacity="0.196641" stroke="none"/>
<g opacity="1">
<path d="M23.5938 110.256C17.5542 110.256 12.8109 114.193 8 119.475L8 126.881C8 127.256 8.30077 127.537 8.6875 127.537C20.2799 127.537 37.5056 127.537 46.1563 127.537C38.2104 118.486 32.4808 110.256 23.5938 110.256Z" fill="#0d87ff" fill-rule="nonzero" opacity="0.198471" stroke="none"/>
<path d="M51.25 112.631C42.9355 112.631 35.6916 120.494 28.6562 127.537L63.3125 127.537C63.6992 127.537 64.0313 127.256 64.0313 126.881L64.0313 119.35C60.0928 115.331 56.4947 112.631 51.25 112.631Z" fill="#58a8f7" fill-rule="nonzero" opacity="0.196641" stroke="none"/>
</g>
<path d="M34.3325 102.825C34.3325 100.648 36.0969 98.884 38.2735 98.884C40.45 98.884 42.2144 100.648 42.2144 102.825C42.2144 105.002 40.45 106.766 38.2735 106.766C36.0969 106.766 34.3325 105.002 34.3325 102.825Z" fill="#58a8f7" fill-rule="evenodd" opacity="0.498717" stroke="none"/>
</g>
</g>
<g opacity="1">
<path d="M78.11 46.2061C78.11 45.62 78.5551 45.1449 79.1001 45.1449L136.675 45.1449C137.222 45.1449 137.666 45.6203 137.666 46.2061L137.666 110.589L78.11 110.589L78.11 46.2061Z" fill="#ffffff" fill-rule="evenodd" opacity="1" stroke="none"/>
<g opacity="1">
<path d="M79.6741 83.0084L89.2741 83.0084L89.2741 85.4084L79.6741 85.4084L79.6741 83.0084Z" fill="#58a8f7" fill-rule="evenodd" opacity="0.248922" stroke="none"/>
<path d="M79.6741 101.408L110.074 101.408L110.074 103.808L79.6741 103.808L79.6741 101.408Z" fill="#58a8f7" fill-rule="evenodd" opacity="0.248922" stroke="none"/>
<path d="M79.6741 95.8084L130.874 95.8084L130.874 98.2084L79.6741 98.2084L79.6741 95.8084Z" fill="#58a8f7" fill-rule="evenodd" opacity="0.248922" stroke="none"/>
<path d="M79.6741 87.8084L119.674 87.8084L119.674 91.8084L79.6741 91.8084L79.6741 87.8084Z" fill="#58a8f7" fill-rule="evenodd" opacity="0.496933" stroke="none"/>
</g>
<g opacity="1">
<path d="M80.3744 47.0084L134.993 47.0084C135.38 47.0084 135.693 47.3745 135.693 47.8261L135.693 79.7163C135.693 80.1679 135.38 80.534 134.993 80.534L80.3744 80.534C79.9876 80.534 79.6741 80.1679 79.6741 79.7163L79.6741 47.8261C79.6741 47.3745 79.9876 47.0084 80.3744 47.0084Z" fill="#58a8f7" fill-rule="evenodd" opacity="0.196641" stroke="none"/>
<g opacity="1">
<path d="M95.2679 63.2397C89.2283 63.2397 84.485 67.1762 79.6741 72.4584L79.6741 79.8647C79.6741 80.2394 79.9749 80.5209 80.3616 80.5209C91.9541 80.5209 109.18 80.5209 117.83 80.5209C109.885 71.47 104.155 63.2397 95.2679 63.2397Z" fill="#0d87ff" fill-rule="nonzero" opacity="0.198471" stroke="none"/>
<path d="M122.924 65.6147C114.61 65.6147 107.366 73.4774 100.33 80.5209L134.987 80.5209C135.373 80.5209 135.705 80.2394 135.705 79.8647L135.705 72.3334C131.767 68.3143 128.169 65.6147 122.924 65.6147Z" fill="#58a8f7" fill-rule="nonzero" opacity="0.196641" stroke="none"/>
</g>
<path d="M106.007 55.8084C106.007 53.6319 107.771 51.8675 109.948 51.8675C112.124 51.8675 113.889 53.6319 113.889 55.8084C113.889 57.985 112.124 59.7494 109.948 59.7494C107.771 59.7494 106.007 57.985 106.007 55.8084Z" fill="#58a8f7" fill-rule="evenodd" opacity="0.498717" stroke="none"/>
</g>
</g>
</g>
<g id="Cart" visibility="hidden">
<g opacity="1">
<path d="M118.4 128L136 128L136 132L118.4 132L118.4 128Z" fill="#58a8f7" fill-rule="evenodd" opacity="0.498717" stroke="none"/>
<path d="M8 128.8L25.6 128.8L25.6 131.2L8 131.2L8 128.8Z" fill="#58a8f7" fill-rule="evenodd" opacity="0.196641" stroke="none"/>
<path d="M102.4 128.8L114.4 128.8L114.4 131.2L102.4 131.2L102.4 128.8Z" fill="#58a8f7" fill-rule="evenodd" opacity="0.196641" stroke="none"/>
<path d="M102.4 136.8L114.4 136.8L114.4 139.2L102.4 139.2L102.4 136.8Z" fill="#58a8f7" fill-rule="evenodd" opacity="0.196641" stroke="none"/>
<path d="M118.4 136L136 136L136 140L118.4 140L118.4 136Z" fill="#58a8f7" fill-rule="evenodd" opacity="0.498717" stroke="none"/>
</g>
<g opacity="1">
<path d="M35.2 20.8L46.4 20.8L46.4 23.2L35.2 23.2L35.2 20.8Z" fill="#58a8f7" fill-rule="evenodd" opacity="0.196641" stroke="none"/>
<path d="M35.2 25.6L59.2 25.6L59.2 29.6L35.2 29.6L35.2 25.6Z" fill="#58a8f7" fill-rule="evenodd" opacity="0.498717" stroke="none"/>
<g opacity="1">
<clipPath clip-rule="evenodd" id="ClipPath">
<path d="M8 22.3961C8 21.5146 8.71762 20.8 9.60396 20.8L25.596 20.8C26.4819 20.8 27.2 21.5141 27.2 22.3961L27.2 33.6039C27.2 34.4854 26.4824 35.2 25.596 35.2L9.60396 35.2C8.71812 35.2 8 34.4859 8 33.6039L8 22.3961Z"/>
</clipPath>
<g clip-path="url(#ClipPath)">
<path d="M8 22.3961C8 21.5146 8.71762 20.8 9.60396 20.8L25.596 20.8C26.4819 20.8 27.2 21.5141 27.2 22.3961L27.2 33.6039C27.2 34.4854 26.4824 35.2 25.596 35.2L9.60396 35.2C8.71812 35.2 8 34.4859 8 33.6039L8 22.3961Z" fill="#58a8f7" fill-rule="evenodd" opacity="0.196641" stroke="none"/>
<g opacity="1">
<path d="M24.4571 28.6545C28.1641 28.6545 30.4453 31.4492 34.0571 35.2C31.1106 35.2 18.4963 35.2 14.8571 35.2C17.9938 32.1111 20.7502 28.6545 24.4571 28.6545Z" fill="#58a8f7" fill-rule="evenodd" opacity="0.196641" stroke="none"/>
<path d="M10.7429 27.3455C14.6557 27.3455 17.5302 31.0907 21.0286 35.2C16.4384 35.2 5.32245 35.2 1.14286 35.2C4.5221 31.0907 6.83005 27.3455 10.7429 27.3455Z" fill="#0d87ff" fill-rule="evenodd" opacity="0.198471" stroke="none"/>
</g>
<path d="M15.8857 25.3818C15.8857 24.0563 16.9602 22.9818 18.2857 22.9818C19.6112 22.9818 20.6857 24.0563 20.6857 25.3818C20.6857 26.7073 19.6112 27.7818 18.2857 27.7818C16.9602 27.7818 15.8857 26.7073 15.8857 25.3818Z" fill="#58a8f7" fill-rule="evenodd" opacity="0.498717" stroke="none"/>
</g>
</g>
<path d="M66.4 27.2L84 27.2L84 29.6L66.4 29.6L66.4 27.2Z" fill="#58a8f7" fill-rule="evenodd" opacity="0.196641" stroke="none"/>
<path d="M118.4 27.2L136 27.2L136 29.6L118.4 29.6L118.4 27.2Z" fill="#58a8f7" fill-rule="evenodd" opacity="0.196641" stroke="none"/>
<path d="M97.6 27.2L104.8 27.2L104.8 29.6L97.6 29.6L97.6 27.2Z" fill="#58a8f7" fill-rule="evenodd" opacity="0.196641" stroke="none"/>
<path d="M108.8 26.4L108.8 28L110.4 28L110.4 28.8L108.8 28.8L108.8 30.4L108 30.4L108 28.8L106.4 28.8L106.4 28L108 28L108 26.4L108.8 26.4Z" fill="#0d87ff" fill-rule="evenodd" opacity="1" stroke="none"/>
<path d="M92 28L96 28L96 28L96 28.8L96 28.8L92 28.8L92 28.8L92 28L92 28Z" fill="#0d87ff" fill-rule="evenodd" opacity="1" stroke="none"/>
</g>
<g opacity="1">
<path d="M35.2 43.2L46.4 43.2L46.4 45.6L35.2 45.6L35.2 43.2Z" fill="#58a8f7" fill-rule="evenodd" opacity="0.196641" stroke="none"/>
<path d="M35.2 48L59.2 48L59.2 52L35.2 52L35.2 48Z" fill="#58a8f7" fill-rule="evenodd" opacity="0.498717" stroke="none"/>
<g opacity="1">
<clipPath clip-rule="evenodd" id="ClipPath_2">
<path d="M8 44.7961C8 43.9146 8.71762 43.2 9.60396 43.2L25.596 43.2C26.4819 43.2 27.2 43.9141 27.2 44.7961L27.2 56.0039C27.2 56.8854 26.4824 57.6 25.596 57.6L9.60396 57.6C8.71812 57.6 8 56.8859 8 56.0039L8 44.7961Z"/>
</clipPath>
<g clip-path="url(#ClipPath_2)">
<path d="M8 44.7961C8 43.9146 8.71762 43.2 9.60396 43.2L25.596 43.2C26.4819 43.2 27.2 43.9141 27.2 44.7961L27.2 56.0039C27.2 56.8854 26.4824 57.6 25.596 57.6L9.60396 57.6C8.71812 57.6 8 56.8859 8 56.0039L8 44.7961Z" fill="#58a8f7" fill-rule="evenodd" opacity="0.196641" stroke="none"/>
<g opacity="1">
<path d="M24.4571 51.0545C28.1641 51.0545 30.4453 53.8492 34.0571 57.6C31.1106 57.6 18.4963 57.6 14.8571 57.6C17.9938 54.5111 20.7502 51.0545 24.4571 51.0545Z" fill="#58a8f7" fill-rule="evenodd" opacity="0.196641" stroke="none"/>
<path d="M10.7429 49.7455C14.6557 49.7455 17.5302 53.4907 21.0286 57.6C16.4384 57.6 5.32245 57.6 1.14286 57.6C4.5221 53.4907 6.83005 49.7455 10.7429 49.7455Z" fill="#0d87ff" fill-rule="evenodd" opacity="0.198471" stroke="none"/>
</g>
<path d="M15.8857 47.7818C15.8857 46.4563 16.9602 45.3818 18.2857 45.3818C19.6112 45.3818 20.6857 46.4563 20.6857 47.7818C20.6857 49.1073 19.6112 50.1818 18.2857 50.1818C16.9602 50.1818 15.8857 49.1073 15.8857 47.7818Z" fill="#58a8f7" fill-rule="evenodd" opacity="0.498717" stroke="none"/>
</g>
</g>
<path d="M66.4 49.6L84 49.6L84 52L66.4 52L66.4 49.6Z" fill="#58a8f7" fill-rule="evenodd" opacity="0.196641" stroke="none"/>
<path d="M118.4 49.6L136 49.6L136 52L118.4 52L118.4 49.6Z" fill="#58a8f7" fill-rule="evenodd" opacity="0.196641" stroke="none"/>
<path d="M97.6 49.6L104.8 49.6L104.8 52L97.6 52L97.6 49.6Z" fill="#58a8f7" fill-rule="evenodd" opacity="0.196641" stroke="none"/>
<path d="M108.8 48.8L108.8 50.4L110.4 50.4L110.4 51.2L108.8 51.2L108.8 52.8L108 52.8L108 51.2L106.4 51.2L106.4 50.4L108 50.4L108 48.8L108.8 48.8Z" fill="#0d87ff" fill-rule="evenodd" opacity="1" stroke="none"/>
<path d="M92 50.4L96 50.4L96 50.4L96 51.2L96 51.2L92 51.2L92 51.2L92 50.4L92 50.4Z" fill="#0d87ff" fill-rule="evenodd" opacity="1" stroke="none"/>
</g>
<g opacity="1">
<path d="M35.2 65.8L46.4 65.8L46.4 68.2L35.2 68.2L35.2 65.8Z" fill="#58a8f7" fill-rule="evenodd" opacity="0.196641" stroke="none"/>
<path d="M35.2 70.6L59.2 70.6L59.2 74.6L35.2 74.6L35.2 70.6Z" fill="#58a8f7" fill-rule="evenodd" opacity="0.498717" stroke="none"/>
<g opacity="1">
<clipPath clip-rule="evenodd" id="ClipPath_3">
<path d="M8 67.3961C8 66.5146 8.71762 65.8 9.60396 65.8L25.596 65.8C26.4819 65.8 27.2 66.5141 27.2 67.3961L27.2 78.6039C27.2 79.4854 26.4824 80.2 25.596 80.2L9.60396 80.2C8.71812 80.2 8 79.4859 8 78.6039L8 67.3961Z"/>
</clipPath>
<g clip-path="url(#ClipPath_3)">
<path d="M8 67.3961C8 66.5146 8.71762 65.8 9.60396 65.8L25.596 65.8C26.4819 65.8 27.2 66.5141 27.2 67.3961L27.2 78.6039C27.2 79.4854 26.4824 80.2 25.596 80.2L9.60396 80.2C8.71812 80.2 8 79.4859 8 78.6039L8 67.3961Z" fill="#58a8f7" fill-rule="evenodd" opacity="0.196641" stroke="none"/>
<g opacity="1">
<path d="M24.4571 73.6545C28.1641 73.6545 30.4453 76.4492 34.0571 80.2C31.1106 80.2 18.4963 80.2 14.8571 80.2C17.9938 77.1111 20.7502 73.6545 24.4571 73.6545Z" fill="#58a8f7" fill-rule="evenodd" opacity="0.196641" stroke="none"/>
<path d="M10.7429 72.3455C14.6557 72.3455 17.5302 76.0907 21.0286 80.2C16.4384 80.2 5.32245 80.2 1.14286 80.2C4.5221 76.0907 6.83005 72.3455 10.7429 72.3455Z" fill="#0d87ff" fill-rule="evenodd" opacity="0.198471" stroke="none"/>
</g>
<path d="M15.8857 70.3818C15.8857 69.0563 16.9602 67.9818 18.2857 67.9818C19.6112 67.9818 20.6857 69.0563 20.6857 70.3818C20.6857 71.7073 19.6112 72.7818 18.2857 72.7818C16.9602 72.7818 15.8857 71.7073 15.8857 70.3818Z" fill="#58a8f7" fill-rule="evenodd" opacity="0.498717" stroke="none"/>
</g>
</g>
<path d="M66.4 72.2L84 72.2L84 74.6L66.4 74.6L66.4 72.2Z" fill="#58a8f7" fill-rule="evenodd" opacity="0.196641" stroke="none"/>
<path d="M118.4 72.2L136 72.2L136 74.6L118.4 74.6L118.4 72.2Z" fill="#58a8f7" fill-rule="evenodd" opacity="0.196641" stroke="none"/>
<path d="M97.6 72.2L104.8 72.2L104.8 74.6L97.6 74.6L97.6 72.2Z" fill="#58a8f7" fill-rule="evenodd" opacity="0.196641" stroke="none"/>
<path d="M108.8 71.4L108.8 73L110.4 73L110.4 73.8L108.8 73.8L108.8 75.4L108 75.4L108 73.8L106.4 73.8L106.4 73L108 73L108 71.4L108.8 71.4Z" fill="#0d87ff" fill-rule="evenodd" opacity="1" stroke="none"/>
<path d="M92 73L96 73L96 73L96 73.8L96 73.8L92 73.8L92 73.8L92 73L92 73Z" fill="#0d87ff" fill-rule="evenodd" opacity="1" stroke="none"/>
</g>
<g opacity="1">
<path d="M35.2 87.7665L46.4 87.7665L46.4 90.1665L35.2 90.1665L35.2 87.7665Z" fill="#58a8f7" fill-rule="evenodd" opacity="0.196641" stroke="none"/>
<path d="M35.2 92.5665L59.2 92.5665L59.2 96.5665L35.2 96.5665L35.2 92.5665Z" fill="#58a8f7" fill-rule="evenodd" opacity="0.498717" stroke="none"/>
<g opacity="1">
<clipPath clip-rule="evenodd" id="ClipPath_4">
<path d="M8 89.3625C8 88.4811 8.71762 87.7665 9.60396 87.7665L25.596 87.7665C26.4819 87.7665 27.2 88.4806 27.2 89.3625L27.2 100.57C27.2 101.452 26.4824 102.166 25.596 102.166L9.60396 102.166C8.71812 102.166 8 101.452 8 100.57L8 89.3625Z"/>
</clipPath>
<g clip-path="url(#ClipPath_4)">
<path d="M8 89.3625C8 88.4811 8.71762 87.7665 9.60396 87.7665L25.596 87.7665C26.4819 87.7665 27.2 88.4806 27.2 89.3625L27.2 100.57C27.2 101.452 26.4824 102.166 25.596 102.166L9.60396 102.166C8.71812 102.166 8 101.452 8 100.57L8 89.3625Z" fill="#58a8f7" fill-rule="evenodd" opacity="0.196641" stroke="none"/>
<g opacity="1">
<path d="M24.4571 95.621C28.1641 95.621 30.4453 98.4157 34.0571 102.166C31.1106 102.166 18.4963 102.166 14.8571 102.166C17.9938 99.0776 20.7502 95.621 24.4571 95.621Z" fill="#58a8f7" fill-rule="evenodd" opacity="0.196641" stroke="none"/>
<path d="M10.7429 94.3119C14.6557 94.3119 17.5302 98.0572 21.0286 102.166C16.4384 102.166 5.32245 102.166 1.14286 102.166C4.5221 98.0572 6.83005 94.3119 10.7429 94.3119Z" fill="#0d87ff" fill-rule="evenodd" opacity="0.198471" stroke="none"/>
</g>
<path d="M15.8857 92.3483C15.8857 91.0228 16.9602 89.9483 18.2857 89.9483C19.6112 89.9483 20.6857 91.0228 20.6857 92.3483C20.6857 93.6738 19.6112 94.7483 18.2857 94.7483C16.9602 94.7483 15.8857 93.6738 15.8857 92.3483Z" fill="#58a8f7" fill-rule="evenodd" opacity="0.498717" stroke="none"/>
</g>
</g>
<path d="M66.4 94.1665L84 94.1665L84 96.5665L66.4 96.5665L66.4 94.1665Z" fill="#58a8f7" fill-rule="evenodd" opacity="0.196641" stroke="none"/>
<path d="M118.4 94.1665L136 94.1665L136 96.5665L118.4 96.5665L118.4 94.1665Z" fill="#58a8f7" fill-rule="evenodd" opacity="0.196641" stroke="none"/>
<path d="M97.6 94.1665L104.8 94.1665L104.8 96.5665L97.6 96.5665L97.6 94.1665Z" fill="#58a8f7" fill-rule="evenodd" opacity="0.196641" stroke="none"/>
<path d="M108.8 93.3665L108.8 94.9665L110.4 94.9665L110.4 95.7665L108.8 95.7665L108.8 97.3665L108 97.3665L108 95.7665L106.4 95.7665L106.4 94.9665L108 94.9665L108 93.3665L108.8 93.3665Z" fill="#0d87ff" fill-rule="evenodd" opacity="1" stroke="none"/>
<path d="M92 94.9665L96 94.9665L96 94.9665L96 95.7665L96 95.7665L92 95.7665L92 95.7665L92 94.9665L92 94.9665Z" fill="#0d87ff" fill-rule="evenodd" opacity="1" stroke="none"/>
</g>
<g opacity="1">
<path d="M35.2 110.4L46.4 110.4L46.4 112.8L35.2 112.8L35.2 110.4Z" fill="#58a8f7" fill-rule="evenodd" opacity="0.196641" stroke="none"/>
<path d="M35.2 115.2L59.2 115.2L59.2 119.2L35.2 119.2L35.2 115.2Z" fill="#58a8f7" fill-rule="evenodd" opacity="0.498717" stroke="none"/>
<g opacity="1">
<path d="M8 111.996C8 111.115 8.71762 110.4 9.60396 110.4L25.596 110.4C26.4819 110.4 27.2 111.114 27.2 111.996L27.2 123.204C27.2 124.085 26.4824 124.8 25.596 124.8L9.60396 124.8C8.71812 124.8 8 124.086 8 123.204L8 111.996Z" fill="#58a8f7" fill-rule="evenodd" opacity="0.196641" stroke="none"/>
<g opacity="1">
<path d="M24.4688 118.25C20.7618 118.25 17.9804 121.724 14.8438 124.812L25.5938 124.812C26.4801 124.812 27.1875 124.1 27.1875 123.219L27.1875 118.875C26.3371 118.501 25.4738 118.25 24.4688 118.25Z" fill="#58a8f7" fill-rule="nonzero" opacity="0.196641" stroke="none"/>
<path d="M10.75 116.938C9.74227 116.938 8.84055 117.217 8 117.656L8 123.219C8 124.101 8.70791 124.812 9.59375 124.812C13.9919 124.812 18.3897 124.812 21.0312 124.812C17.5328 120.703 14.6628 116.938 10.75 116.938Z" fill="#0d87ff" fill-rule="nonzero" opacity="0.198471" stroke="none"/>
</g>
<path d="M15.8857 114.982C15.8857 113.656 16.9602 112.582 18.2857 112.582C19.6112 112.582 20.6857 113.656 20.6857 114.982C20.6857 116.307 19.6112 117.382 18.2857 117.382C16.9602 117.382 15.8857 116.307 15.8857 114.982Z" fill="#58a8f7" fill-rule="evenodd" opacity="0.498717" stroke="none"/>
</g>
<path d="M66.4 116.8L84 116.8L84 119.2L66.4 119.2L66.4 116.8Z" fill="#58a8f7" fill-rule="evenodd" opacity="0.196641" stroke="none"/>
<path d="M118.4 116.8L136 116.8L136 119.2L118.4 119.2L118.4 116.8Z" fill="#58a8f7" fill-rule="evenodd" opacity="0.196641" stroke="none"/>
<path d="M97.6 116.8L104.8 116.8L104.8 119.2L97.6 119.2L97.6 116.8Z" fill="#58a8f7" fill-rule="evenodd" opacity="0.196641" stroke="none"/>
<path d="M108.8 116L108.8 117.6L110.4 117.6L110.4 118.4L108.8 118.4L108.8 120L108 120L108 118.4L106.4 118.4L106.4 117.6L108 117.6L108 116L108.8 116Z" fill="#0d87ff" fill-rule="evenodd" opacity="1" stroke="none"/>
<path d="M92 117.6L96 117.6L96 117.6L96 118.4L96 118.4L92 118.4L92 118.4L92 117.6L92 117.6Z" fill="#0d87ff" fill-rule="evenodd" opacity="1" stroke="none"/>
</g>
</g>
<g id="Landing" visibility="hidden">
<g opacity="1">
<path d="M67.2 94.4L76.8 94.4L76.8 96.8L67.2 96.8L67.2 94.4Z" fill="#58a8f7" fill-rule="evenodd" opacity="0.196641" stroke="none"/>
<path d="M52 99.2L92 99.2L92 105.6L52 105.6L52 99.2Z" fill="#58a8f7" fill-rule="evenodd" opacity="0.498717" stroke="none"/>
<path d="M21.6 120.8L122.4 120.8L122.4 123.2L21.6 123.2L21.6 120.8Z" fill="#58a8f7" fill-rule="evenodd" opacity="0.196641" stroke="none"/>
<path d="M21.6 115.2L122.4 115.2L122.4 117.6L21.6 117.6L21.6 115.2Z" fill="#58a8f7" fill-rule="evenodd" opacity="0.196641" stroke="none"/>
<path d="M21.6 109.6L122.4 109.6L122.4 112L21.6 112L21.6 109.6Z" fill="#58a8f7" fill-rule="evenodd" opacity="0.196641" stroke="none"/>
<path d="M21.6 126.4L122.4 126.4L122.4 128.8L21.6 128.8L21.6 126.4Z" fill="#58a8f7" fill-rule="evenodd" opacity="0.196641" stroke="none"/>
<path d="M21.6 132L122.4 132L122.4 134.4L21.6 134.4L21.6 132Z" fill="#58a8f7" fill-rule="evenodd" opacity="0.196641" stroke="none"/>
<path d="M41.6 137.6L102.4 137.6L102.4 140L41.6 140L41.6 137.6Z" fill="#58a8f7" fill-rule="evenodd" opacity="0.196641" stroke="none"/>
</g>
<g opacity="1">
<path d="M9.6 20.8L134.4 20.8C135.284 20.8 136 21.5163 136 22.4L136 84.8C136 85.6837 135.284 86.4 134.4 86.4L9.6 86.4C8.71634 86.4 8 85.6837 8 84.8L8 22.4C8 21.5163 8.71634 20.8 9.6 20.8Z" fill="#58a8f7" fill-rule="evenodd" opacity="0.196641" stroke="none"/>
<g opacity="1">
<path d="M43.5938 45.5938C29.786 45.5938 18.999 54.6878 8 67.1562L8 84.8125C8 85.6962 8.71009 86.4062 9.59375 86.4062C36.0836 86.4062 75.4276 86.4062 95.1875 86.4062C77.0319 65.0608 63.8999 45.5938 43.5938 45.5938Z" fill="#0d87ff" fill-rule="nonzero" opacity="0.198471" stroke="none"/>
<path d="M106.844 51.1875C87.8457 51.1875 71.2627 69.795 55.1875 86.4062L134.406 86.4062C135.29 86.4062 136 85.6962 136 84.8125L136 66.75C126.977 57.2354 118.854 51.1875 106.844 51.1875Z" fill="#58a8f7" fill-rule="nonzero" opacity="0.196641" stroke="none"/>
</g>
<path d="M70.4 38.4C70.4 34.4235 73.6235 31.2 77.6 31.2C81.5765 31.2 84.8 34.4235 84.8 38.4C84.8 42.3765 81.5765 45.6 77.6 45.6C73.6235 45.6 70.4 42.3765 70.4 38.4Z" fill="#58a8f7" fill-rule="evenodd" opacity="0.498717" stroke="none"/>
</g>
</g>
<g id="Article" visibility="hidden">
<g opacity="1">
<path d="M58.4 85.6L66.4 85.6L66.4 88L58.4 88L58.4 85.6Z" fill="#58a8f7" fill-rule="evenodd" opacity="0.196641" stroke="none"/>
<path d="M58.4 90.4L98.4 90.4L98.4 96.8L58.4 96.8L58.4 90.4Z" fill="#58a8f7" fill-rule="evenodd" opacity="0.498717" stroke="none"/>
<path d="M58.4 112L136 112L136 114.4L58.4 114.4L58.4 112Z" fill="#58a8f7" fill-rule="evenodd" opacity="0.196641" stroke="none"/>
<path d="M58.4 106.4L136 106.4L136 108.8L58.4 108.8L58.4 106.4Z" fill="#58a8f7" fill-rule="evenodd" opacity="0.196641" stroke="none"/>
<path d="M58.4 100.8L136 100.8L136 103.2L58.4 103.2L58.4 100.8Z" fill="#58a8f7" fill-rule="evenodd" opacity="0.196641" stroke="none"/>
<path d="M58.4 117.6L136 117.6L136 120L58.4 120L58.4 117.6Z" fill="#58a8f7" fill-rule="evenodd" opacity="0.196641" stroke="none"/>
<path d="M58.4 123.2L136 123.2L136 125.6L58.4 125.6L58.4 123.2Z" fill="#58a8f7" fill-rule="evenodd" opacity="0.196641" stroke="none"/>
<path d="M58.4 128.8L136 128.8L136 131.2L58.4 131.2L58.4 128.8Z" fill="#58a8f7" fill-rule="evenodd" opacity="0.196641" stroke="none"/>
<path d="M58.4 134.4L111.2 134.4L111.2 136.8L58.4 136.8L58.4 134.4Z" fill="#58a8f7" fill-rule="evenodd" opacity="0.196641" stroke="none"/>
</g>
<g opacity="1">
<path d="M12 84.8L43.2 84.8L43.2 88.8L12 88.8L12 84.8Z" fill="#58a8f7" fill-rule="evenodd" opacity="0.498717" stroke="none"/>
<path d="M12 92.8L37.6 92.8L37.6 96.8L12 96.8L12 92.8Z" fill="#58a8f7" fill-rule="evenodd" opacity="0.498717" stroke="none"/>
<path d="M12 100.8L40 100.8L40 104.8L12 104.8L12 100.8Z" fill="#58a8f7" fill-rule="evenodd" opacity="0.498717" stroke="none"/>
<path d="M12 108.8L32 108.8L32 112.8L12 112.8L12 108.8Z" fill="#58a8f7" fill-rule="evenodd" opacity="0.498717" stroke="none"/>
<path d="M12 124.8L32 124.8L32 128.8L12 128.8L12 124.8Z" fill="#58a8f7" fill-rule="evenodd" opacity="0.498717" stroke="none"/>
<path d="M12 116.8L41.6 116.8L41.6 120.8L12 120.8L12 116.8Z" fill="#58a8f7" fill-rule="evenodd" opacity="0.498717" stroke="none"/>
</g>
<g opacity="1">
<path d="M9.6 20.8L134.4 20.8C135.284 20.8 136 21.3416 136 22.0098L136 69.1902C136 69.8584 135.284 70.4 134.4 70.4L9.6 70.4C8.71634 70.4 8 69.8584 8 69.1902L8 22.0098C8 21.3416 8.71634 20.8 9.6 20.8Z" fill="#58a8f7" fill-rule="evenodd" opacity="0.196641" stroke="none"/>
<g opacity="1">
<path d="M106.844 43.7813C87.8457 43.7813 71.2627 57.8465 55.1875 70.4062L134.406 70.4062C135.29 70.4062 136 69.8556 136 69.1875L136 55.75C127.016 48.6007 118.811 43.7813 106.844 43.7813Z" fill="#58a8f7" fill-rule="nonzero" opacity="0.196641" stroke="none"/>
<path d="M43.5938 39.5625C29.7836 39.5625 19.001 46.4138 8 55.8438L8 69.1875C8 69.8556 8.71009 70.4062 9.59375 70.4062C36.0836 70.4062 75.4276 70.4062 95.1875 70.4062C77.0319 54.267 63.8999 39.5625 43.5938 39.5625Z" fill="#0d87ff" fill-rule="nonzero" opacity="0.198471" stroke="none"/>
</g>
<path d="M70.4 34.4C70.4 30.4235 73.6235 27.2 77.6 27.2C81.5765 27.2 84.8 30.4235 84.8 34.4C84.8 38.3765 81.5765 41.6 77.6 41.6C73.6235 41.6 70.4 38.3765 70.4 34.4Z" fill="#58a8f7" fill-rule="evenodd" opacity="0.498717" stroke="none"/>
</g>
</g>
<g id="About" visibility="hidden">
<g opacity="1">
<g opacity="0.498717">
<path d="M104 128.8L136 128.8L136 132.8L104 132.8L104 128.8Z" fill="#58a8f7" fill-rule="evenodd" opacity="1" stroke="none"/>
<path d="M110.4 136L129.6 136L129.6 140L110.4 140L110.4 136Z" fill="#58a8f7" fill-rule="evenodd" opacity="1" stroke="none"/>
</g>
<g opacity="1">
<path d="M105.6 110.4C105.6 102.447 112.047 96 120 96C127.953 96 134.4 102.447 134.4 110.4C134.4 118.353 127.953 124.8 120 124.8C112.047 124.8 105.6 118.353 105.6 110.4Z" fill="#58a8f7" fill-rule="evenodd" opacity="0.196641" stroke="none"/>
<g opacity="1">
<clipPath clip-rule="evenodd" id="ClipPath_5">
<path d="M105.6 110.4C105.6 102.447 112.047 96 120 96C127.953 96 134.4 102.447 134.4 110.4C134.4 118.353 127.953 124.8 120 124.8C112.047 124.8 105.6 118.353 105.6 110.4Z"/>
</clipPath>
<g clip-path="url(#ClipPath_5)">
<path d="M120 111.36C126.893 111.36 132.48 116.947 132.48 123.84C132.48 130.733 126.893 136.32 120 136.32C113.107 136.32 107.52 130.733 107.52 123.84C107.52 116.947 113.107 111.36 120 111.36ZM120 99.84C122.651 99.84 124.8 101.989 124.8 104.64C124.8 107.291 122.651 109.44 120 109.44C117.349 109.44 115.2 107.291 115.2 104.64C115.2 101.989 117.349 99.84 120 99.84Z" fill="#0d87ff" fill-rule="evenodd" opacity="0.498717" stroke="none"/>
</g>
</g>
</g>
</g>
<g opacity="1">
<g opacity="0.498717">
<path d="M56 128.8L88 128.8L88 132.8L56 132.8L56 128.8Z" fill="#58a8f7" fill-rule="evenodd" opacity="1" stroke="none"/>
<path d="M62.4 136L81.6 136L81.6 140L62.4 140L62.4 136Z" fill="#58a8f7" fill-rule="evenodd" opacity="1" stroke="none"/>
</g>
<g opacity="1">
<path d="M57.6 110.4C57.6 102.447 64.0471 96 72 96C79.9529 96 86.4 102.447 86.4 110.4C86.4 118.353 79.9529 124.8 72 124.8C64.0471 124.8 57.6 118.353 57.6 110.4Z" fill="#58a8f7" fill-rule="evenodd" opacity="0.196641" stroke="none"/>
<g opacity="1">
<clipPath clip-rule="evenodd" id="ClipPath_6">
<path d="M57.6 110.4C57.6 102.447 64.0471 96 72 96C79.9529 96 86.4 102.447 86.4 110.4C86.4 118.353 79.9529 124.8 72 124.8C64.0471 124.8 57.6 118.353 57.6 110.4Z"/>
</clipPath>
<g clip-path="url(#ClipPath_6)">
<path d="M72 111.36C78.8925 111.36 84.48 116.947 84.48 123.84C84.48 130.733 78.8925 136.32 72 136.32C65.1075 136.32 59.52 130.733 59.52 123.84C59.52 116.947 65.1075 111.36 72 111.36ZM72 99.84C74.651 99.84 76.8 101.989 76.8 104.64C76.8 107.291 74.651 109.44 72 109.44C69.349 109.44 67.2 107.291 67.2 104.64C67.2 101.989 69.349 99.84 72 99.84Z" fill="#0d87ff" fill-rule="evenodd" opacity="0.498717" stroke="none"/>
</g>
</g>
</g>
</g>
<g opacity="1">
<g opacity="0.498717">
<path d="M8 128.8L40 128.8L40 132.8L8 132.8L8 128.8Z" fill="#58a8f7" fill-rule="evenodd" opacity="1" stroke="none"/>
<path d="M14.4 136L33.6 136L33.6 140L14.4 140L14.4 136Z" fill="#58a8f7" fill-rule="evenodd" opacity="1" stroke="none"/>
</g>
<g opacity="1">
<path d="M9.6 110.4C9.6 102.447 16.0471 96 24 96C31.9529 96 38.4 102.447 38.4 110.4C38.4 118.353 31.9529 124.8 24 124.8C16.0471 124.8 9.6 118.353 9.6 110.4Z" fill="#58a8f7" fill-rule="evenodd" opacity="0.196641" stroke="none"/>
<g opacity="1">
<clipPath clip-rule="evenodd" id="ClipPath_7">
<path d="M9.6 110.4C9.6 102.447 16.0471 96 24 96C31.9529 96 38.4 102.447 38.4 110.4C38.4 118.353 31.9529 124.8 24 124.8C16.0471 124.8 9.6 118.353 9.6 110.4Z"/>
</clipPath>
<g clip-path="url(#ClipPath_7)">
<path d="M24 111.36C30.8925 111.36 36.48 116.947 36.48 123.84C36.48 130.733 30.8925 136.32 24 136.32C17.1075 136.32 11.52 130.733 11.52 123.84C11.52 116.947 17.1075 111.36 24 111.36ZM24 99.84C26.651 99.84 28.8 101.989 28.8 104.64C28.8 107.291 26.651 109.44 24 109.44C21.349 109.44 19.2 107.291 19.2 104.64C19.2 101.989 21.349 99.84 24 99.84Z" fill="#0d87ff" fill-rule="evenodd" opacity="0.498717" stroke="none"/>
</g>
</g>
</g>
</g>
<g opacity="1">
<g opacity="0.196641">
<path d="M8 80L136 80L136 82.4L8 82.4L8 80Z" fill="#58a8f7" fill-rule="evenodd" opacity="1" stroke="none"/>
<path d="M8 74.4L136 74.4L136 76.8L8 76.8L8 74.4Z" fill="#58a8f7" fill-rule="evenodd" opacity="1" stroke="none"/>
<path d="M8 68.8L136 68.8L136 71.2L8 71.2L8 68.8Z" fill="#58a8f7" fill-rule="evenodd" opacity="1" stroke="none"/>
<path d="M8 85.6L84.8 85.6L84.8 88L8 88L8 85.6Z" fill="#58a8f7" fill-rule="evenodd" opacity="1" stroke="none"/>
</g>
<path d="M8 60.8L48 60.8L48 64.8L8 64.8L8 60.8Z" fill="#58a8f7" fill-rule="evenodd" opacity="0.498717" stroke="none"/>
</g>
<g opacity="1">
<path d="M8 22.3978C8 21.5154 8.71985 20.8 9.59522 20.8L134.405 20.8C135.286 20.8 136 21.5132 136 22.3978L136 51.2022C136 52.0846 135.28 52.8 134.405 52.8L9.59522 52.8C8.71421 52.8 8 52.0868 8 51.2022L8 22.3978Z" fill="#58a8f7" fill-rule="evenodd" opacity="0.196641" stroke="none"/>
<g opacity="1">
<path d="M106.844 38.4062C87.8457 38.4062 71.2627 46.017 55.1875 52.8125L134.406 52.8125C135.282 52.8125 136 52.07 136 51.1875L136 44.875C127.013 41.0049 118.814 38.4062 106.844 38.4062Z" fill="#58a8f7" fill-rule="nonzero" opacity="0.196641" stroke="none"/>
<path d="M43.5938 28C29.7873 28 18.9979 33.641 8 41.2188L8 51.1875C8 52.0721 8.71273 52.8125 9.59375 52.8125C36.0836 52.8125 75.4276 52.8125 95.1875 52.8125C77.0319 39.8378 63.8999 28 43.5938 28Z" fill="#0d87ff" fill-rule="nonzero" opacity="0.198471" stroke="none"/>
</g>
<path d="M77.6 29.6C77.6 26.5072 80.1072 24 83.2 24C86.2928 24 88.8 26.5072 88.8 29.6C88.8 32.6928 86.2928 35.2 83.2 35.2C80.1072 35.2 77.6 32.6928 77.6 29.6Z" fill="#58a8f7" fill-rule="evenodd" opacity="0.498717" stroke="none"/>
</g>
</g>
<g id="Contact" visibility="hidden">
<g opacity="1">
<path d="M19.0767 38.4L124.923 38.4C125.993 38.4 126.381 38.5114 126.772 38.7206C127.163 38.9297 127.47 39.2367 127.679 39.6278C127.889 40.0189 128 40.4068 128 41.4767L128 132.923C128 133.993 127.889 134.381 127.679 134.772C127.47 135.163 127.163 135.47 126.772 135.679C126.381 135.889 125.993 136 124.923 136L19.0767 136C18.0068 136 17.6189 135.889 17.2278 135.679C16.8367 135.47 16.5297 135.163 16.3206 134.772C16.1114 134.381 16 133.993 16 132.923L16 41.4767C16 40.4068 16.1114 40.0189 16.3206 39.6278C16.5297 39.2367 16.8367 38.9297 17.2278 38.7206C17.6189 38.5114 18.0068 38.4 19.0767 38.4Z" fill="#58a8f7" fill-rule="evenodd" opacity="0.196641" stroke="none"/>
<path d="M24 120.794C24 119.913 24.7158 119.2 25.597 119.2L70.403 119.2C71.285 119.2 72 119.92 72 120.794L72 126.406C72 127.287 71.2842 128 70.403 128L25.597 128C24.715 128 24 127.28 24 126.406L24 120.794Z" fill="#0d87ff" fill-rule="evenodd" opacity="0.498717" stroke="none"/>
<path d="M52 24L92 24L92 30.4L52 30.4L52 24Z" fill="#58a8f7" fill-rule="evenodd" opacity="0.498717" stroke="none"/>
<g opacity="1">
<g opacity="1">
<g opacity="1">
<g opacity="1">
<g opacity="1">
<path d="M25.6 51.2L118.4 51.2C119.284 51.2 120 51.9163 120 52.8L120 58.4C120 59.2837 119.284 60 118.4 60L25.6 60C24.7163 60 24 59.2837 24 58.4L24 52.8C24 51.9163 24.7163 51.2 25.6 51.2Z" fill="#58a8f7" fill-rule="evenodd" opacity="0.498717" stroke="none"/>
<path d="M25.6 52L118.4 52C118.842 52 119.2 52.3582 119.2 52.8L119.2 58.4C119.2 58.8418 118.842 59.2 118.4 59.2L25.6 59.2C25.1582 59.2 24.8 58.8418 24.8 58.4L24.8 52.8C24.8 52.3582 25.1582 52 25.6 52Z" fill="#ffffff" fill-rule="evenodd" opacity="1" stroke="none"/>
</g>
<path d="M27.2 54.4L83.2 54.4L83.2 56.8L27.2 56.8L27.2 54.4Z" fill="#58a8f7" fill-rule="evenodd" opacity="0.196641" stroke="none"/>
</g>
<path d="M114 56.8L112 54.4L116 54.4L114 56.8Z" fill="#0d87ff" fill-rule="evenodd" opacity="1" stroke="none"/>
</g>
<path d="M24 46.4L57.6 46.4L57.6 48.8L24 48.8L24 46.4Z" fill="#58a8f7" fill-rule="evenodd" opacity="0.196641" stroke="none"/>
</g>
<g opacity="1">
<g opacity="1">
<path d="M25.6 72.8L118.4 72.8C119.284 72.8 120 73.5163 120 74.4L120 80C120 80.8837 119.284 81.6 118.4 81.6L25.6 81.6C24.7163 81.6 24 80.8837 24 80L24 74.4C24 73.5163 24.7163 72.8 25.6 72.8Z" fill="#58a8f7" fill-rule="evenodd" opacity="0.498717" stroke="none"/>
<path d="M25.6 73.6L118.4 73.6C118.842 73.6 119.2 73.9582 119.2 74.4L119.2 80C119.2 80.4418 118.842 80.8 118.4 80.8L25.6 80.8C25.1582 80.8 24.8 80.4418 24.8 80L24.8 74.4C24.8 73.9582 25.1582 73.6 25.6 73.6Z" fill="#ffffff" fill-rule="evenodd" opacity="1" stroke="none"/>
</g>
<path d="M24 68L40 68L40 70.4L24 70.4L24 68Z" fill="#58a8f7" fill-rule="evenodd" opacity="0.196641" stroke="none"/>
</g>
<g opacity="1">
<path d="M25.6 94.4L118.4 94.4C119.284 94.4 120 95.1163 120 96L120 109.6C120 110.484 119.284 111.2 118.4 111.2L25.6 111.2C24.7163 111.2 24 110.484 24 109.6L24 96C24 95.1163 24.7163 94.4 25.6 94.4Z" fill="#58a8f7" fill-rule="evenodd" opacity="0.498717" stroke="none"/>
<path d="M25.6 95.2L118.4 95.2C118.842 95.2 119.2 95.5582 119.2 96L119.2 109.6C119.2 110.042 118.842 110.4 118.4 110.4L25.6 110.4C25.1582 110.4 24.8 110.042 24.8 109.6L24.8 96C24.8 95.5582 25.1582 95.2 25.6 95.2Z" fill="#ffffff" fill-rule="evenodd" opacity="1" stroke="none"/>
</g>
<path d="M24 89.6L40 89.6L40 92L24 92L24 89.6Z" fill="#58a8f7" fill-rule="evenodd" opacity="0.196641" stroke="none"/>
</g>
</g>
</g>
<g id="Map" visibility="hidden">
<path d="M11.0767 20.8L132.923 20.8C133.993 20.8 134.381 20.9114 134.772 21.1206C135.163 21.3297 135.47 21.6367 135.679 22.0278C135.889 22.4189 136 22.8068 136 23.8767L136 85.7233C136 86.7932 135.889 87.1811 135.679 87.5722C135.47 87.9633 135.163 88.2703 134.772 88.4794C134.381 88.6886 133.993 88.8 132.923 88.8L11.0767 88.8C10.0068 88.8 9.6189 88.6886 9.22779 88.4794C8.83667 88.2703 8.52973 87.9633 8.32056 87.5722C8.11139 87.1811 8 86.7932 8 85.7233L8 23.8767C8 22.8068 8.11139 22.4189 8.32056 22.0278C8.52973 21.6367 8.83667 21.3297 9.22779 21.1206C9.6189 20.9114 10.0068 20.8 11.0767 20.8Z" fill="#58a8f7" fill-rule="evenodd" opacity="0.196641" stroke="none"/>
<path d="M35.1875 20.8125L35.1875 24.8125L8 24.8125L8 27.1875L35.1875 27.1875L35.1875 36L27.5938 36C20.7451 36 15.1875 41.5592 15.1875 48.4062L15.1875 59.1875L8 59.1875L8 61.5938L15.1875 61.5938L15.1875 80L8 87.1875L8 88.8125L9.78125 88.8125L15.1875 83.4062L15.1875 88.8125L17.5938 88.8125L17.5938 81L28.625 69.9688C30.9014 71.6337 33.6406 72.8125 36.8125 72.8125C43.7027 72.8125 49.5938 66.8902 49.5938 60C49.5938 56.8337 48.4096 54.1182 46.75 51.8438L55.1875 43.4062L55.1875 58.4062L49.5938 58.4062L49.5938 60L49.5938 60.8125L55.1875 60.8125L55.1875 69.8125C46.1325 71.1651 39.1875 78.9777 39.1875 88.4062L39.1875 88.8125L41.5938 88.8125L41.5938 88.4062C41.5938 80.3064 47.4638 73.5791 55.1875 72.25L55.1875 88.8125L57.5938 88.8125L57.5938 72C57.7275 71.9968 57.8655 72 58 72L68.8125 72L68.8125 88.8125L71.1875 88.8125L71.1875 72L98.4062 72L98.4062 60.8125L110.406 60.8125L110.406 79.2188L84 79.2188L84 88.8125L86.4062 88.8125L86.4062 81.625L110.406 81.625L110.406 88.8125L112.812 88.8125L112.812 81.625L123.188 81.625L123.188 88.8125L125.594 88.8125L125.594 79.2188L112.812 79.2188L112.812 60.8125L136 60.8125L136 58.4062L112.812 58.4062L112.812 44L124.406 44C129.506 43.9994 133.806 46.985 136 51.2188L136 46.8438C133.144 43.6455 129.032 41.5932 124.406 41.5938L112.812 41.5938L112.812 20.8125L110.406 20.8125L110.406 41.5938L98.4062 41.5938L98.4062 34C98.4062 28.9216 94.2965 24.8125 89.2188 24.8125L84.8125 24.8125L84.8125 20.8125L82.4062 20.8125L82.4062 24.8125L73.7812 24.8125L77.7812 20.8125L74.4062 20.8125L70.4062 24.8125L57.5938 24.8125L57.5938 20.8125L55.1875 20.8125L55.1875 24.8125L37.5938 24.8125L37.5938 20.8125L35.1875 20.8125ZM121.594 20.8125L121.594 32L136 32L136 29.625L124 29.625L124 20.8125L121.594 20.8125ZM37.5938 27.1875L55.1875 27.1875L55.1875 36L37.5938 36L37.5938 27.1875ZM57.5938 27.1875L68.0312 27.1875L59.2188 36L57.5938 36L57.5938 27.1875ZM71.4062 27.1875L82.4062 27.1875L82.4062 44L96 44L96 58.4062L71.1875 58.4062L71.1875 43.5938C71.1875 39.3957 67.7908 36 63.5938 36L62.5938 36L71.4062 27.1875ZM84.8125 27.1875L89.2188 27.1875C92.9708 27.1875 96 30.2469 96 34L96 41.5938L84.8125 41.5938L84.8125 27.1875ZM27.5938 38.4062L35.1875 38.4062L35.1875 46.4062L36.8125 46.4062L37.5938 46.4062L37.5938 38.4062L55.1875 38.4062L55.1875 40.0312L45.2812 49.9375C42.9903 47.7668 40.0413 46.4062 36.8125 46.4062C29.4036 46.4062 23.6924 51.9093 23.2812 59.1875L17.5938 59.1875L17.5938 48.4062C17.5938 42.8849 22.0703 38.4062 27.5938 38.4062ZM60.1875 38.4062L63.5938 38.4062C66.4653 38.4062 68.8125 40.7211 68.8125 43.5938L68.8125 58.4062L57.5938 58.4062L57.5938 41L60.1875 38.4062ZM98.4062 44L110.406 44L110.406 58.4062L98.4062 58.4062L98.4062 44ZM36.8125 48.8125C42.4753 48.8125 47.1875 53.7397 47.1875 60C47.1875 65.5647 42.3772 70.4062 36.8125 70.4062C30.5522 70.4062 25.5938 65.6628 25.5938 60C25.5937 53.6353 30.4478 48.8125 36.8125 48.8125ZM57.5938 60.8125L68.8125 60.8125L68.8125 69.5938L58 69.5938C57.8656 69.5938 57.7275 69.5909 57.5938 69.5938L57.5938 60.8125ZM71.1875 60.8125L96 60.8125L96 69.5938L71.1875 69.5938L71.1875 60.8125ZM17.5938 61.5938L23.375 61.5938C23.7268 64.1992 24.9541 66.5345 26.75 68.4375L17.5938 77.5938L17.5938 61.5938Z" fill="#58a8f7" fill-rule="nonzero" opacity="1" stroke="none"/>
<path d="M81.6 65.6C84.8 64 87.2 60.6928 87.2 57.6C87.2 54.5072 84.6928 52 81.6 52C78.5072 52 76 54.5072 76 57.6C76 60.6928 78.4 64 81.6 65.6Z" fill="#0d87ff" fill-rule="evenodd" opacity="1" stroke="none"/>
<g opacity="1">
<path d="M8 96.8L48 96.8L48 100.8L8 100.8L8 96.8Z" fill="#58a8f7" fill-rule="evenodd" opacity="0.498717" stroke="none"/>
<path d="M80 96.8L120 96.8L120 100.8L80 100.8L80 96.8Z" fill="#58a8f7" fill-rule="evenodd" opacity="0.498717" stroke="none"/>
<g opacity="0.196641">
<path d="M8 116L64 116L64 118.4L8 118.4L8 116Z" fill="#58a8f7" fill-rule="evenodd" opacity="1" stroke="none"/>
<path d="M8 110.4L64 110.4L64 112.8L8 112.8L8 110.4Z" fill="#58a8f7" fill-rule="evenodd" opacity="1" stroke="none"/>
<path d="M8 104.8L64 104.8L64 107.2L8 107.2L8 104.8Z" fill="#58a8f7" fill-rule="evenodd" opacity="1" stroke="none"/>
<path d="M8 121.6L41.6 121.6L41.6 124L8 124L8 121.6Z" fill="#58a8f7" fill-rule="evenodd" opacity="1" stroke="none"/>
</g>
<g opacity="0.196641">
<path d="M80 116L136 116L136 118.4L80 118.4L80 116Z" fill="#58a8f7" fill-rule="evenodd" opacity="1" stroke="none"/>
<path d="M80 110.4L136 110.4L136 112.8L80 112.8L80 110.4Z" fill="#58a8f7" fill-rule="evenodd" opacity="1" stroke="none"/>
<path d="M80 104.8L136 104.8L136 107.2L80 107.2L80 104.8Z" fill="#58a8f7" fill-rule="evenodd" opacity="1" stroke="none"/>
<path d="M80 121.6L113.6 121.6L113.6 124L80 124L80 121.6Z" fill="#58a8f7" fill-rule="evenodd" opacity="1" stroke="none"/>
</g>
<path d="M8 132.794C8 131.913 8.71547 131.2 9.59857 131.2L31.2014 131.2C32.0843 131.2 32.8 131.92 32.8 132.794L32.8 138.406C32.8 139.287 32.0845 140 31.2014 140L9.59857 140C8.7157 140 8 139.28 8 138.406L8 132.794Z" fill="#0d87ff" fill-rule="evenodd" opacity="0.498717" stroke="none"/>
</g>
</g>
<g id="Timeline" visibility="hidden">
<g opacity="1">
<path d="M16 26.8C16 23.4863 18.6863 20.8 22 20.8C25.3137 20.8 28 23.4863 28 26.8C28 30.1137 25.3137 32.8 22 32.8C18.6863 32.8 16 30.1137 16 26.8Z" fill="#0d87ff" fill-rule="evenodd" opacity="0.498717" stroke="none"/>
<path d="M22 28.6L19.884 29.7125L20.2881 27.3562L18.5762 25.6875L20.942 25.3438L22 23.2L23.058 25.3438L25.4238 25.6875L23.7119 27.3562L24.116 29.7125L22 28.6Z" fill="#ffffff" fill-rule="evenodd" opacity="1" stroke="none"/>
</g>
<g opacity="1">
<path d="M20.8 47.6C20.8 46.9373 21.3373 46.4 22 46.4C22.6627 46.4 23.2 46.9373 23.2 47.6C23.2 48.2627 22.6627 48.8 22 48.8C21.3373 48.8 20.8 48.2627 20.8 47.6Z" fill="#0d87ff" fill-rule="evenodd" opacity="1" stroke="none"/>
<path d="M20.8 82.8C20.8 82.1373 21.3373 81.6 22 81.6C22.6627 81.6 23.2 82.1373 23.2 82.8C23.2 83.4627 22.6627 84 22 84C21.3373 84 20.8 83.4627 20.8 82.8Z" fill="#0d87ff" fill-rule="evenodd" opacity="1" stroke="none"/>
<path d="M20.8 118C20.8 117.337 21.3373 116.8 22 116.8C22.6627 116.8 23.2 117.337 23.2 118C23.2 118.663 22.6627 119.2 22 119.2C21.3373 119.2 20.8 118.663 20.8 118Z" fill="#0d87ff" fill-rule="evenodd" opacity="1" stroke="none"/>
</g>
<g opacity="1">
<path d="M32 45.6L64 45.6L64 49.6L32 49.6L32 45.6Z" fill="#58a8f7" fill-rule="evenodd" opacity="0.498717" stroke="none"/>
<path d="M32 80.8L64 80.8L64 84.8L32 84.8L32 80.8Z" fill="#58a8f7" fill-rule="evenodd" opacity="0.498717" stroke="none"/>
<path d="M32 116L64 116L64 120L32 120L32 116Z" fill="#58a8f7" fill-rule="evenodd" opacity="0.498717" stroke="none"/>
<g opacity="0.196641">
<path d="M32 64.8L88 64.8L88 67.2L32 67.2L32 64.8Z" fill="#58a8f7" fill-rule="evenodd" opacity="1" stroke="none"/>
<path d="M32 59.2L88 59.2L88 61.6L32 61.6L32 59.2Z" fill="#58a8f7" fill-rule="evenodd" opacity="1" stroke="none"/>
<path d="M32 53.6L88 53.6L88 56L32 56L32 53.6Z" fill="#58a8f7" fill-rule="evenodd" opacity="1" stroke="none"/>
<path d="M32 70.4L65.6 70.4L65.6 72.8L32 72.8L32 70.4Z" fill="#58a8f7" fill-rule="evenodd" opacity="1" stroke="none"/>
</g>
<g opacity="0.196641">
<path d="M32 100L88 100L88 102.4L32 102.4L32 100Z" fill="#58a8f7" fill-rule="evenodd" opacity="1" stroke="none"/>
<path d="M32 94.4L88 94.4L88 96.8L32 96.8L32 94.4Z" fill="#58a8f7" fill-rule="evenodd" opacity="1" stroke="none"/>
<path d="M32 88.8L88 88.8L88 91.2L32 91.2L32 88.8Z" fill="#58a8f7" fill-rule="evenodd" opacity="1" stroke="none"/>
<path d="M32 105.6L65.6 105.6L65.6 108L32 108L32 105.6Z" fill="#58a8f7" fill-rule="evenodd" opacity="1" stroke="none"/>
</g>
<path d="M32 23.2L80 23.2L80 29.6L32 29.6L32 23.2Z" fill="#58a8f7" fill-rule="evenodd" opacity="0.498717" stroke="none"/>
<g opacity="0.196641">
<path d="M32 124L88 124L88 126.4L32 126.4L32 124Z" fill="#58a8f7" fill-rule="evenodd" opacity="1" stroke="none"/>
<path d="M32 129.6L65.6 129.6L65.6 132L32 132L32 129.6Z" fill="#58a8f7" fill-rule="evenodd" opacity="1" stroke="none"/>
</g>
</g>
</g>
</svg>
