<svg width="172" height="25" viewBox="0 0 172 25" fill="none" xmlns="http://www.w3.org/2000/svg">
<g id="highlight_10">
<path id="highlgiht" opacity="0.85" d="M140.111 10.1947C140.072 10.1947 139.877 10.1947 139.524 10.1947C139.285 10.4631 143.25 10.5165 151.419 10.3547C159.587 10.1929 163.738 10.1809 163.872 10.3187" stroke="#FAC141" stroke-opacity="0.91" stroke-width="20.3587" stroke-linejoin="bevel"/>
<path id="highlight" opacity="0.85" d="M12.1547 14.2214C11.6018 14.2214 11.348 14.2214 11.3933 14.2214C10.7249 14.2285 10.4622 14.2191 10.6053 14.1933C10.688 14.1951 10.5258 14.168 10.1187 14.112C10.6404 14.1831 12.4858 14.3142 15.6547 14.5053C18.8244 14.6964 22.7662 14.6192 27.48 14.2734C32.1929 13.9276 34.7907 13.6952 35.2733 13.576" stroke="#FAC141" stroke-opacity="0.579" stroke-width="20.3587" stroke-linejoin="bevel"/>
</g>
</svg>
