<!-- @format -->

<svg
	id="network"
	viewBox="0 0 150 150"
	xmlns="http://www.w3.org/2000/svg"
>
	<circle
		id="circleGreen"
		cx="150"
		cy="150"
		r="30"
		fill="none"
		stroke="#434343"
		stroke-width="1"
	/>
	<g
		id="ray00"
		class="ray"
	>
		<line
			x1="336"
			y1="150"
			x2="150"
			y2="150"
		/>
		<circle
			cx="336"
			cy="150"
			r="24"
		/>
		<text
			class=""
			x="320"
			y="155"
			text-anchor="middle"
		>
			45
		</text>
	</g>
	<g
		id="ray01"
		class="ray"
	>
		<line
			x1="360"
			y1="150"
			x2="150"
			y2="150"
		/>
		<circle
			cx="360"
			cy="150"
			r="36"
		/>
		<text
			class="black"
			x="360"
			y="155"
			text-anchor="middle"
		>
			15
		</text>
	</g>
	<g
		id="ray02"
		class="ray"
	>
		<line
			x1="480"
			y1="150"
			x2="150"
			y2="150"
		/>
		<circle
			cx="480"
			cy="150"
			r="36"
		/>
		<text
			class=""
			x="480"
			y="155"
			text-anchor="middle"
		>
			0
		</text>
	</g>
	<g
		id="ray03"
		class="ray"
	>
		<line
			x1="360"
			y1="150"
			x2="150"
			y2="150"
		/>
		<circle
			cx="360"
			cy="150"
			r="18"
		/>
		<text
			class=""
			x="320"
			y="155"
			text-anchor="middle"
		>
			315
		</text>
	</g>
	<g
		id="ray04"
		class="ray"
	>
		<line
			x1="372"
			y1="150"
			x2="150"
			y2="150"
		/>
		<circle
			cx="372"
			cy="150"
			r="36"
		/>
		<text
			class=""
			x="320"
			y="155"
			text-anchor="middle"
		>
			270
		</text>
	</g>
	<g
		id="ray05"
		class="ray"
	>
		<line
			x1="360"
			y1="150"
			x2="150"
			y2="150"
		/>
		<circle
			cx="360"
			cy="150"
			r="10"
		/>
		<text
			class=""
			x="320"
			y="155"
			text-anchor="middle"
		>
			225
		</text>
	</g>
	<g
		id="ray06"
		class="ray"
	>
		<line
			x1="348"
			y1="150"
			x2="150"
			y2="150"
		/>
		<circle
			cx="348"
			cy="150"
			r="30"
		/>
		<text
			class=""
			x="320"
			y="155"
			text-anchor="middle"
		>
			180
		</text>
	</g>
	<g
		id="ray07"
		class="ray"
	>
		<line
			x1="500"
			y1="150"
			x2="150"
			y2="150"
		/>
		<circle
			cx="500"
			cy="150"
			r="36"
		/>
		<text
			class=""
			x="320"
			y="155"
			text-anchor="middle"
		>
			135
		</text>
	</g>
</svg>
