<svg width="539" height="425" viewBox="0 0 539 425" fill="none" xmlns="http://www.w3.org/2000/svg">
<path d="M18.5665 147.936C18.4723 147.922 17.6892 148.068 16.2172 148.372C14.7452 148.676 16.1012 145.461 20.2852 138.727C24.47 131.993 27.9469 126.716 30.7158 122.896C33.4856 119.076 36.2016 115.299 38.8638 111.566C41.5252 107.832 46.9394 100.687 55.1065 90.1311C63.2736 79.5756 69.5687 71.5378 73.9918 66.0178C78.4149 60.4978 82.8087 55.2907 87.1732 50.3965C91.5376 45.5032 95.1612 41.7027 98.0438 38.9951C100.926 36.2876 103.316 34.2507 105.215 32.8844C107.112 31.5173 108.599 30.7604 109.676 30.6138C110.751 30.4662 111.456 30.4671 111.789 30.6165C112.122 30.7658 112.36 30.9174 112.504 31.0711C112.647 31.224 113.057 32.3702 113.733 34.5098C114.41 36.6484 114.014 40.8831 112.543 47.2138C111.071 53.5453 109.419 59.2267 107.587 64.2578C105.755 69.2898 103.391 75.0427 100.496 81.5164C97.6016 87.9911 94.0634 95.6378 89.8812 104.456C85.6998 113.275 82.5794 119.949 80.5199 124.479C78.4612 129.009 74.9861 136.388 70.0945 146.616C65.203 156.845 61.4096 164.745 58.7145 170.318C56.0203 175.89 54.1203 180.329 53.0145 183.634C51.9087 186.94 51.3283 189.403 51.2732 191.024C51.6314 191.337 53.3532 189.403 56.4385 185.222C59.5238 181.04 64.4172 173.766 71.1185 163.399C77.8198 153.032 84.1136 143.288 89.9998 134.166C95.8869 125.043 100.297 118.256 103.229 113.806C106.161 109.354 108.351 106.01 109.799 103.772C111.247 101.535 113.738 97.768 117.272 92.4711C120.805 87.1742 125.583 80.4431 131.604 72.2778C137.625 64.1124 142.174 58.0654 145.249 54.1365C148.324 50.2076 151.873 45.9449 155.897 41.3485C159.921 36.752 163.768 32.3583 167.439 28.1672C171.11 23.9769 175.169 19.7706 179.617 15.5484C184.066 11.3253 187.883 8.11242 191.068 5.90975C194.253 3.70798 196.61 2.22977 198.14 1.4751C199.67 0.720436 200.999 0.264435 202.129 0.107102C203.259 -0.0502318 204.16 -0.0342175 204.832 0.155116C205.504 0.345338 206.067 0.610238 206.523 0.949794C206.977 1.28935 207.513 2.53823 208.131 4.69646C208.748 6.85557 208.716 9.77294 208.033 13.4485C207.351 17.124 205.133 23.7827 201.379 33.4245C197.624 43.0654 194.219 51.2556 191.163 57.9951C188.107 64.7338 185.205 70.7653 182.457 76.0898C179.71 81.4151 177.277 86.0947 175.156 90.1284C173.034 94.1622 171.154 97.7552 169.515 100.907C167.875 104.059 166.287 107.13 164.753 110.119C163.219 113.109 161.168 116.931 158.601 121.584C156.034 126.238 151.027 135.806 143.58 150.288C136.132 164.77 130.545 175.813 126.82 183.418C123.094 191.023 119.981 197.272 117.483 202.163C114.985 207.055 112.516 212.235 110.076 217.703C107.637 223.172 105.817 227.572 104.616 230.906C103.415 234.239 102.786 237.414 102.729 240.43C103.57 241.165 106.856 237.707 112.588 230.055C118.319 222.404 123.558 215.18 128.305 208.384C133.054 201.588 136.696 196.281 139.232 192.464C141.769 188.648 146.693 181.428 154.005 170.804C161.317 160.182 167.188 151.758 171.618 145.531C176.049 139.304 179.308 134.764 181.396 131.908C183.484 129.054 186.472 125.025 190.36 119.82C194.248 114.616 197.074 110.878 198.839 108.607C200.603 106.336 202.554 103.863 204.692 101.188C206.83 98.5138 210.143 94.4849 214.632 89.1018C219.122 83.7196 224.072 78.2262 229.483 72.6218C234.892 67.0164 240.296 61.7849 245.695 56.9271C251.093 52.0702 255.439 48.4965 258.735 46.2058C262.029 43.916 264.566 42.3525 266.347 41.5151C268.127 40.6778 269.632 40.2391 270.863 40.1991C272.093 40.1583 272.937 40.2716 273.395 40.5392C273.852 40.8067 274.25 42.0667 274.587 44.3191C274.923 46.5707 273.561 51.1969 270.503 58.1978C267.444 65.1986 264.099 72.0418 260.468 78.7271C256.838 85.4116 253.605 91.4422 250.769 96.8191C247.934 102.196 245.673 106.429 243.988 109.519C242.303 112.609 240.752 115.377 239.337 117.824C237.923 120.272 236.166 123.304 234.067 126.919C231.967 130.533 228.012 137.37 222.201 147.428C216.391 157.488 210.511 167.414 204.564 177.207C198.616 187.001 192.341 197.797 185.737 209.596C179.134 221.396 174.068 230.765 170.54 237.704C167.013 244.643 164.204 250.381 162.115 254.918C160.025 259.454 158.335 263.176 157.047 266.086C155.757 268.994 153.912 273.231 151.512 278.796C149.112 284.362 147.255 289.155 145.941 293.176C144.627 297.199 144.27 300.813 144.868 304.019C145.661 304.475 146.827 304.669 148.366 304.6C149.907 304.532 153.008 301.884 157.669 296.655C162.331 291.428 165.792 287.221 168.055 284.035C170.317 280.85 172.057 278.424 173.275 276.756C174.491 275.089 175.495 273.721 176.287 272.652C177.079 271.585 179.344 268.456 183.084 263.267C186.822 258.078 191.186 251.984 196.175 244.984C201.163 237.985 205.366 232.183 208.783 227.576C212.199 222.971 215.514 218.46 218.727 214.042C221.938 209.624 226.347 203.69 231.952 196.24C237.556 188.791 242.471 182.189 246.695 176.436C250.919 170.684 256.379 163.837 263.075 155.896C269.771 147.956 274.914 141.981 278.504 137.972C282.093 133.964 284.871 130.911 286.839 128.815C288.805 126.719 291.69 123.923 295.493 120.427C299.297 116.93 302.384 114.157 304.756 112.107C307.127 110.057 309.286 108.234 311.235 106.638C313.182 105.041 314.686 103.863 315.745 103.103C316.806 102.342 317.962 101.583 319.215 100.824C320.466 100.065 321.488 99.5067 322.281 99.1485C323.074 98.7902 324.036 98.476 325.168 98.2058C326.299 97.9356 327.479 98.0035 328.707 98.4098C329.934 98.816 330.663 100.6 330.893 103.762C331.123 106.924 330.593 110.533 329.305 114.59C328.017 118.647 324.05 128.149 317.403 143.098C310.755 158.046 305.731 169.354 302.329 177.022C298.928 184.689 294.905 193.402 290.259 203.159C285.612 212.917 280.542 223.422 275.047 234.674C269.551 245.926 265.317 254.467 262.343 260.296C259.369 266.125 256.703 271.632 254.343 276.816C251.982 282.001 249.676 287.457 247.425 293.184C245.175 298.912 243.875 304.007 243.525 308.468C244.363 309.236 248.611 305.421 256.269 297.023C263.928 288.626 270.031 281.728 274.579 276.328C279.126 270.929 282.435 266.99 284.504 264.511C286.574 262.032 289.782 258.248 294.127 253.158C298.471 248.068 303.501 242.38 309.217 236.095C314.935 229.811 319.411 225.053 322.647 221.822C325.882 218.591 329.652 214.966 333.957 210.947C338.262 206.929 342.89 203.208 347.841 199.783C352.793 196.358 356.932 193.778 360.258 192.043C363.586 190.308 366.439 189.038 368.82 188.232C371.201 187.427 373.513 186.984 375.756 186.902C377.999 186.819 379.965 187.121 381.652 187.807C383.339 188.494 384.725 189.332 385.809 190.32C386.894 191.31 387.886 193.208 388.787 196.015C389.688 198.821 389.979 202.431 389.659 206.844C389.339 211.258 388.915 214.75 388.384 217.32C387.852 219.891 387.024 223.023 385.9 226.715C384.775 230.408 382.589 236.95 379.34 246.342C376.091 255.734 373.611 262.91 371.899 267.871C370.186 272.832 368.845 277.247 367.877 281.115C366.908 284.983 366.169 287.984 365.659 290.12C365.148 292.256 364.507 296.299 363.734 302.248C362.961 308.197 362.551 313.597 362.503 318.45C362.454 323.302 362.711 327.372 363.276 330.659C363.84 333.946 364.742 336.915 365.982 339.566C367.222 342.216 369.835 345.059 373.823 348.092C377.81 351.127 381.473 353.49 384.812 355.18C388.151 356.872 394.9 360.276 405.06 365.394" stroke="black" stroke-width="1.22533" stroke-linecap="round" stroke-linejoin="round"/>
<path d="M0.00111999 192.082C-0.0175467 191.924 0.197122 190.952 0.645122 189.166C1.09312 187.378 2.40466 184.928 4.57977 181.815C6.75577 178.702 9.93668 174.476 14.1225 169.138C18.3082 163.8 21.7882 159.368 24.5624 155.84C27.3367 152.314 30.6851 148.274 34.6078 143.72C38.5304 139.167 43.2371 133.635 48.7278 127.124C54.2175 120.615 60.4491 113.349 67.4225 105.326C74.3949 97.3027 80.7393 90.0614 86.4558 83.6018C92.1722 77.1414 97.8562 71.0747 103.508 65.4018C109.16 59.7289 113.363 55.9249 116.116 53.9898C118.868 52.0547 121.943 50.7983 125.342 50.2205C125.535 50.2409 125.771 50.5685 126.05 51.2031C126.33 51.8378 126.435 52.8285 126.366 54.1752C126.299 55.5218 125.514 58.1605 124.012 62.0912C122.51 66.0209 120.754 70.2085 118.745 74.6538C116.737 79.0983 114.265 84.6547 111.329 91.3231C108.393 97.9907 104.442 106.887 99.4758 118.011C94.5095 129.136 89.7704 140.032 85.2584 150.7C80.7464 161.368 77.2384 169.993 74.7344 176.576C72.2304 183.159 70.0562 190.545 68.2118 198.735C68.6002 198.984 71.0331 194.811 75.5104 186.215C79.9869 177.62 85.3687 167.648 91.6558 156.302C97.9429 144.956 103.258 135.583 107.601 128.183C111.944 120.783 115.673 114.626 118.788 109.713C121.902 104.8 125.326 99.396 129.06 93.5018C132.794 87.6085 136.282 82.1396 139.522 77.0952C142.763 72.0507 149.073 63.0658 158.45 50.1405C167.829 37.2151 174.333 28.8485 177.961 25.0405C181.589 21.2325 184.975 18.2076 188.121 15.9658C191.266 13.7241 194.141 12.5013 196.745 12.2978C197.119 12.5956 197.538 13.696 198.002 15.5991C198.467 17.5023 197.188 22.8343 194.165 31.5952C191.143 40.3552 188.637 47.14 186.648 51.9498C184.659 56.7587 183.002 60.7085 181.677 63.7992C180.353 66.8898 178.687 70.7734 176.681 75.4498C174.674 80.1263 172.137 86.104 169.07 93.3832C166.003 100.661 161.879 111.618 156.698 126.254C151.517 140.889 147.716 152.036 145.296 159.694C142.876 167.352 141.051 173.27 139.82 177.449C138.588 181.626 137.644 185.008 136.989 187.592C136.333 190.176 134.238 196.872 130.702 207.679C127.167 218.487 124.125 227.301 121.574 234.119C119.025 240.939 117.591 246.774 117.273 251.624C118.541 252.415 121.722 248.801 126.818 240.784C131.914 232.768 138.468 222.119 146.478 208.839C154.49 195.558 160.873 185.288 165.628 178.03C170.382 170.77 173.862 165.481 176.066 162.162C178.27 158.842 182.095 153.22 187.542 145.296C192.99 137.373 198.418 130.074 203.826 123.4C209.234 116.727 213.297 111.798 216.017 108.614C218.736 105.429 221.685 102.061 224.862 98.5112C228.04 94.9609 231.499 91.4884 235.24 88.0938C238.981 84.7 242.477 81.7712 245.728 79.3072C248.978 76.844 252.005 74.8058 254.806 73.1925C257.608 71.5783 260.142 70.5156 262.408 70.0045C264.674 69.4934 266.441 69.2481 267.71 69.2685C268.981 69.2881 270.305 69.736 271.682 70.6125C273.061 71.4889 274.112 73.5796 274.834 76.8845C275.557 80.1894 275.925 83.2551 275.937 86.0818C275.95 88.9076 275.395 93.3329 274.274 99.3578C273.154 105.383 271.841 111.322 270.333 117.175C268.826 123.028 267.23 128.93 265.544 134.879C263.858 140.829 262.304 146.248 260.882 151.136C259.462 156.024 257.974 161.243 256.418 166.793C254.864 172.343 253.294 178.276 251.709 184.592C250.124 190.91 247.55 201.351 243.985 215.916C240.421 230.483 237.585 241.748 235.477 249.711C233.37 257.675 231.466 264.583 229.768 270.435C228.069 276.288 226.099 283.133 223.857 290.97C221.614 298.806 220.322 306.505 219.978 314.066C220.749 314.38 222.135 313.563 224.137 311.616C226.14 309.669 229.222 305.266 233.384 298.408C237.546 291.55 241.103 285.522 244.057 280.326C247.011 275.128 250.12 269.732 253.384 264.135C256.648 258.54 259.493 253.757 261.918 249.786C264.344 245.815 266.147 242.884 267.328 240.991C268.507 239.099 269.96 236.767 271.686 233.996C273.412 231.226 276.309 226.713 280.377 220.458C284.445 214.202 288.822 207.825 293.51 201.328C298.198 194.832 301.744 189.991 304.149 186.806C306.554 183.621 308.53 180.995 310.077 178.927C311.623 176.86 314.838 172.962 319.721 167.231C324.606 161.5 329.29 156.355 333.774 151.795C338.259 147.234 341.86 143.818 344.578 141.547C347.298 139.277 349.554 137.635 351.348 136.62C353.142 135.606 354.401 135.006 355.125 134.819C355.85 134.632 356.685 134.589 357.63 134.689C358.576 134.788 359.245 135.827 359.637 137.804C360.03 139.781 360.068 141.831 359.752 143.954C359.436 146.076 356.828 153.361 351.928 165.807C347.026 178.253 343.123 188.221 340.217 195.71C337.311 203.199 335.256 208.607 334.052 211.935C332.847 215.262 331.212 219.969 329.145 226.055C327.078 232.141 325.074 237.944 323.132 243.464C321.189 248.984 319.027 256.038 316.646 264.626C314.266 273.213 312.578 279.558 311.584 283.661C310.589 287.763 309.212 294.767 307.453 304.672C305.694 314.577 303.992 324.446 302.348 334.278C300.704 344.111 299.555 351.94 298.9 357.767C298.244 363.595 298.221 368.378 298.83 372.116C299.358 372.615 300.247 372.752 301.497 372.526C302.747 372.3 303.85 371.837 304.808 371.138C305.766 370.437 306.56 369.755 307.19 369.091C307.821 368.427 309.543 366.143 312.358 362.239C315.174 358.336 317.356 355.224 318.906 352.902C320.456 350.581 325.966 341.721 335.436 326.323C344.906 310.925 352.121 299.183 357.08 291.096C362.039 283.01 366.233 276.238 369.662 270.779C373.093 265.32 375.868 260.977 377.988 257.752C380.108 254.528 383.478 249.535 388.1 242.774C392.722 236.013 396.802 230.301 400.338 225.639C403.874 220.978 407.426 216.715 410.994 212.851C414.562 208.988 417.493 206.156 419.785 204.356C422.078 202.556 423.822 201.369 425.017 200.794C426.212 200.22 427.061 199.902 427.565 199.84C428.069 199.78 428.746 199.843 429.596 200.03C430.446 200.216 431.16 201.635 431.738 204.287C432.316 206.94 432.164 210.538 431.281 215.082C430.399 219.626 429.53 223.235 428.674 225.908C427.819 228.581 425.258 236.105 420.989 248.48C416.72 260.855 413.442 270.408 411.157 277.14C408.872 283.872 407.243 288.751 406.27 291.778C405.298 294.804 403.791 299.518 401.75 305.92C399.71 312.323 397.632 320.246 395.514 329.689C393.397 339.13 391.892 346.732 391 352.495C390.106 358.258 389.616 366.668 389.529 377.726C390.26 378.29 391.847 376.899 394.29 373.553C396.735 370.206 398.801 366.952 400.488 363.79C402.176 360.628 405.494 354.815 410.444 346.35C415.392 337.886 419.364 331.228 422.36 326.378C425.354 321.527 428.352 316.876 431.352 312.425C434.352 307.974 437.822 303.13 441.762 297.892C445.703 292.654 449.343 288.252 452.684 284.687C456.023 281.121 458.922 278.402 461.381 276.53C463.84 274.657 465.846 273.383 467.4 272.707C468.954 272.031 470.52 271.599 472.1 271.412C473.679 271.226 475.088 271.335 476.325 271.739C477.562 272.144 478.688 272.839 479.702 273.824C480.717 274.809 481.859 277.624 483.13 282.267C484.401 286.912 485.391 293.652 486.101 302.488C486.811 311.325 487.514 318.882 488.208 325.161C488.902 331.438 489.776 336.997 490.83 341.838C491.884 346.678 493.117 351.484 494.529 356.255C495.942 361.028 497.661 366.146 499.686 371.61C501.713 377.074 503.763 382.277 505.837 387.22C507.911 392.163 509.977 396.45 512.036 400.083C514.095 403.715 516.479 407.139 519.186 410.355C521.895 413.57 527.708 417.604 536.625 422.456" stroke="black" stroke-width="4.17067" stroke-linecap="round" stroke-linejoin="round"/>
</svg>
